<svg width="51" height="51" viewBox="0 0 51 51" fill="none" xmlns="http://www.w3.org/2000/svg">
<path fill-rule="evenodd" clip-rule="evenodd" d="M36.0466 1.47389C42.447 3.22857 46.6499 5.82718 48.8391 12.8125C51.0366 19.7644 50.6606 27.2427 49.8334 34.3952C48.6386 41.464 45.2629 46.7615 38.6118 48.7C30.7157 51.3822 19.7698 51.3822 11.8737 48.7C5.22258 46.7615 1.8469 41.464 0.65204 34.3952C-0.175169 27.2427 -0.559529 19.7644 1.64636 12.8125C3.82719 5.82718 8.03844 3.22857 14.4389 1.47389C21.0315 -0.188887 29.454 -0.188887 36.0466 1.47389Z" fill="#E1322D"/>
<path fill-rule="evenodd" clip-rule="evenodd" d="M39.2636 21.3937C39.9153 21.3937 40.5671 21.3519 41.2188 21.3519C41.4778 21.3352 41.787 21.3603 41.9541 21.5859C42.1296 21.8282 42.0293 22.1457 41.8872 22.3797L38.5366 28.5211C38.428 28.73 38.2442 28.9472 37.9935 28.9472C37.7512 28.9723 37.5339 28.7968 37.417 28.5963C36.172 26.5575 34.927 24.5104 33.682 22.4716C33.5734 22.2878 33.5399 22.0622 33.6068 21.8616C33.6736 21.6527 33.9076 21.5608 34.1081 21.5274C34.4841 21.494 34.8601 21.5274 35.2278 21.4856C34.9771 20.7336 34.6262 20.0234 34.2084 19.3633C33.8491 18.7868 33.4397 18.2603 32.9885 17.759C32.5874 17.3412 32.1696 16.9234 31.7017 16.5725C29.6379 14.9014 26.9306 14.0575 24.2819 14.2162C21.5329 14.375 20.5218 15.1604 18.4246 16.3302C18.5583 15.5197 19.068 14.2747 19.0429 13.623C19.0512 13.3974 18.9176 13.1718 18.7087 13.1133C18.458 13.0214 18.199 13.1216 17.9567 13.1968C17.1294 13.4391 16.3022 13.6815 15.4667 13.9238L15.4332 13.7567C16.8871 12.5618 18.5583 11.626 20.3547 11.0494C23.7805 9.92976 27.6158 10.1219 30.9079 11.5925C32.5707 12.3195 34.0747 13.3723 35.3615 14.6424C36.4477 15.7537 37.2415 16.7981 37.9852 18.1601C38.545 19.1878 38.9628 20.2741 39.2636 21.3937ZM16.2354 33.7935C16.0683 33.8353 15.8845 33.852 15.7591 33.9857C15.5669 34.1695 15.5836 34.4787 15.709 34.7043C16.3607 35.8323 17.0292 36.9436 17.6726 38.0716C15.1909 36.7013 13.1354 34.5789 11.8153 32.0806C11.08 30.6936 10.5619 29.1895 10.3029 27.6354C9.75141 24.385 10.2862 21.1096 11.8236 18.2019C11.3808 17.7841 10.9463 17.3496 10.4951 16.9318C10.3029 16.7647 10.1107 16.5224 10.1441 16.2466C10.1775 15.996 10.4282 15.8372 10.6538 15.762L17.447 13.765C17.6726 13.6982 17.9399 13.6731 18.1405 13.8235C18.3243 13.9739 18.3577 14.2413 18.3159 14.4669C17.7812 16.7563 17.2046 19.0458 16.6448 21.3352C16.5947 21.5692 16.5111 21.8282 16.2855 21.9452C16.0683 22.0538 15.8009 21.9619 15.6254 21.8115C15.333 21.5608 15.0656 21.2767 14.7815 21.0261C14.1047 22.6304 13.854 24.4101 14.0128 26.1481C14.23 28.6966 15.3998 31.1364 17.2214 32.9329L17.3133 33.0248C17.3801 33.0833 17.447 33.1501 17.5138 33.2086C17.5556 33.2504 17.6057 33.2838 17.6559 33.3339C17.8146 33.5011 18.0068 33.6264 18.1739 33.7852C18.1071 33.7852 18.0486 33.7852 17.9817 33.7852C17.706 33.8102 17.4219 33.7935 17.1462 33.8019C16.837 33.8019 16.5362 33.8186 16.2354 33.7935ZM25.6271 11.5925C23.9727 11.509 22.3099 11.7179 20.7391 12.2359V12.2276L20.7307 12.2359C20.4634 12.3195 20.196 12.4197 19.9286 12.52C19.9537 12.5451 19.9704 12.5785 19.9871 12.6036C20.1876 12.896 20.2962 13.2637 20.2879 13.6146C20.2962 13.7065 20.2879 13.7984 20.2795 13.8903C21.3323 13.3974 22.4353 13.0798 24.1816 12.9796L24.2067 12.9712C25.694 12.8877 27.1897 13.0715 28.5934 13.5227C29.9972 13.9655 31.3257 14.6674 32.4871 15.5949L32.4788 15.6033C32.7545 15.8038 32.9968 16.021 33.2308 16.2383C33.4397 16.4388 33.6486 16.6561 33.8575 16.865L33.9076 16.9151C34.1499 17.1825 34.3922 17.4666 34.6345 17.7924C34.8601 18.0932 35.0774 18.394 35.2612 18.7032V18.7116C35.5119 19.1043 35.7291 19.4803 35.9046 19.8479C36.0968 20.249 36.2722 20.6668 36.4143 21.0929C36.4394 21.1765 36.4561 21.2517 36.4644 21.3352C36.548 22.0204 36.055 22.6471 35.3698 22.7223L35.303 22.7306L36.5062 24.7026C36.9741 25.4796 37.4504 26.2567 37.9267 27.0421L40.3414 22.622H40.2746C39.8735 22.6304 39.4808 22.6471 39.2636 22.6471V22.6387C38.7205 22.6387 38.2108 22.2794 38.0604 21.7279C37.9267 21.2099 37.7512 20.6835 37.5423 20.1571C37.3585 19.6892 37.1579 19.2463 36.9323 18.8202L36.8989 18.7617C36.5563 18.135 36.197 17.5835 35.8043 17.0571C35.4033 16.514 34.9688 16.021 34.4758 15.5113C33.8825 14.9264 33.2391 14.3917 32.5456 13.9238C31.8688 13.4642 31.1586 13.0631 30.4149 12.7373L30.4066 12.7289C28.9026 12.0605 27.2732 11.6761 25.6271 11.5925ZM14.8734 33.1C15.0489 32.9245 15.216 32.8159 15.3748 32.749C14.7899 32.0054 14.2885 31.2033 13.8875 30.351C13.2775 29.0642 12.8931 27.6688 12.7678 26.2567C12.6842 25.2707 12.7093 24.2848 12.8514 23.3322C12.9934 22.3797 13.2524 21.4355 13.6284 20.5414V20.5498C13.6786 20.4245 13.7538 20.3075 13.8457 20.1989C14.3052 19.6808 15.0907 19.639 15.6087 20.0902L15.6589 20.1404C15.8009 19.5555 15.9095 19.1043 16.0265 18.6447C16.3022 17.5167 16.578 16.3803 16.8537 15.244L12.0158 16.6644L12.0993 16.7396C12.2748 16.9067 12.4503 17.0822 12.6592 17.2744C13.0686 17.642 13.2023 18.2687 12.9266 18.7784C12.2163 20.1237 11.7401 21.5358 11.5061 22.9896C11.2721 24.4435 11.2805 25.9392 11.5312 27.4349C11.6481 28.1367 11.8236 28.8386 12.0576 29.5154C12.2832 30.1922 12.5756 30.8523 12.9182 31.4873L12.9098 31.4957H12.9182C13.3443 32.3146 13.8624 33.0833 14.4556 33.7935C14.5308 33.5428 14.6729 33.3089 14.8734 33.1Z" fill="white"/>
<path fill-rule="evenodd" clip-rule="evenodd" d="M39.5309 27.5602C39.4808 28.4208 39.0045 29.8496 38.6954 30.6351C36.8404 35.6067 31.8604 39.3166 26.588 39.8848C25.2929 40.0268 23.9811 40.0018 22.6943 39.8096C22.6107 39.7845 22.5773 39.8597 22.5439 39.9182C22.2598 40.4279 21.9674 40.9292 21.6749 41.4389C21.5663 41.6395 21.3657 41.8233 21.1151 41.8066C20.8561 41.8066 20.6639 41.5893 20.5469 41.3804C19.4356 39.4837 18.3159 37.5786 17.2046 35.6819C17.096 35.4814 16.9623 35.2975 16.8788 35.0803C16.8286 34.8965 16.8286 34.6709 16.9707 34.5205C17.1211 34.3617 17.3467 34.3116 17.5556 34.3116C19.1097 34.3032 20.6555 34.2949 22.2097 34.2865C23.0035 34.2614 23.8056 34.2781 24.6077 34.2698C24.8333 34.2614 25.1007 34.3116 25.2428 34.5121C25.3681 34.6876 25.3514 34.9299 25.2595 35.1304C25.1007 35.4563 24.8835 35.7571 24.7331 36.0913C27.5656 36.1749 30.4066 35.0552 32.4537 33.0916C34.1582 31.479 35.3197 29.3149 35.7124 27.0004C35.7208 26.9168 35.7375 26.8416 35.7625 26.7581C35.9213 26.9753 36.0383 27.2093 36.1803 27.4349C36.5981 28.1117 37.0075 28.8052 37.4337 29.482C37.559 29.6909 37.8097 29.8747 38.0603 29.8162C38.5366 29.6992 39.2719 28.0365 39.5309 27.5602ZM36.3725 30.1421L36.1803 29.8246C36.0299 30.1839 35.8628 30.5432 35.679 30.8857C35.0523 32.0472 34.2502 33.1 33.306 33.9941C32.1612 35.0886 30.7993 35.9493 29.3287 36.5258C27.8748 37.0856 26.3206 37.3781 24.7581 37.3447C24.5827 37.3447 24.4072 37.3112 24.2317 37.236C23.6051 36.9603 23.3126 36.225 23.5884 35.5983L23.6301 35.5148C23.1706 35.5148 22.7194 35.5148 22.2431 35.5315C21.0232 35.5315 19.7949 35.5482 18.575 35.5482L21.1234 39.8931L21.4577 39.3082L21.4911 39.2414V39.2498C21.7585 38.8153 22.0509 38.3306 22.97 38.5897C23.5466 38.6732 24.1148 38.715 24.6662 38.7317C25.2511 38.7401 25.8444 38.715 26.4543 38.6398C28.8775 38.3808 31.2421 37.3948 33.2057 35.8908C34.9353 34.5706 36.3558 32.8577 37.2331 30.9108C37.1997 30.8941 37.1746 30.8774 37.1412 30.869C36.8738 30.7186 36.6315 30.5014 36.4644 30.2591C36.431 30.2257 36.3976 30.1839 36.3725 30.1421Z" fill="white"/>
</svg>
