<svg width="106" height="26" viewBox="0 0 106 26" fill="none" xmlns="http://www.w3.org/2000/svg">
<path fill-rule="evenodd" clip-rule="evenodd" d="M17.103 4.2932L8.55586 0V8.66789L17.103 4.2932Z" fill="#319F01"/>
<path fill-rule="evenodd" clip-rule="evenodd" d="M0.00732422 4.2932L8.5545 0V8.66789L0.00732422 4.2932Z" fill="#206C00"/>
<path fill-rule="evenodd" clip-rule="evenodd" d="M17.0954 21.6251L8.54825 17.332V25.9999L17.0954 21.6251Z" fill="#206C00"/>
<path fill-rule="evenodd" clip-rule="evenodd" d="M0.000961304 21.6251L8.54814 17.332V25.9999L0.000961304 21.6251Z" fill="#319F01"/>
<path fill-rule="evenodd" clip-rule="evenodd" d="M8.53094 17.3232L17.0954 12.9573V21.6252L8.53094 17.3232Z" fill="#E1322D"/>
<path fill-rule="evenodd" clip-rule="evenodd" d="M17.0954 12.9573L8.54825 8.66431V17.3322L17.0954 12.9573Z" fill="#900838"/>
<path fill-rule="evenodd" clip-rule="evenodd" d="M0.00874329 12.9612L8.55592 8.66797V17.3359L0.00874329 12.9612Z" fill="#BE004A"/>
<path fill-rule="evenodd" clip-rule="evenodd" d="M8.55592 8.6679L0.00874329 4.29321V13.0426L8.55592 8.6679Z" fill="#E1322D"/>
<path d="M25.4575 11.4388C25.4575 12.1158 25.6993 12.7007 26.1829 13.1904C26.6666 13.68 27.2572 13.9235 27.9545 13.9235C28.6745 13.9235 29.2847 13.6913 29.7851 13.2267C30.2857 12.765 30.536 12.1803 30.536 11.4751C30.536 11.1506 30.4572 10.8316 30.2998 10.5127C30.1423 10.1937 29.9342 9.92779 29.6755 9.71527C29.4167 9.50258 29.1131 9.32923 28.7645 9.19487C28.5621 9.11654 28.2022 9.01291 27.6847 8.87873C27.1673 8.74437 26.8072 8.63811 26.6048 8.55978C26.1886 8.40311 25.84 8.20166 25.5588 7.95542C24.8614 7.3623 24.5128 6.59268 24.5128 5.64144C24.5128 4.6593 24.8531 3.8563 25.5336 3.23789C26.214 2.61667 27.0549 2.30615 28.0559 2.30615C29.0007 2.30615 29.8077 2.62791 30.477 3.27161C31.1463 3.91514 31.4808 4.71251 31.4808 5.66392H30.1817C30.1817 5.03709 29.9651 4.51949 29.5322 4.11097C29.0992 3.70244 28.5564 3.49818 27.9041 3.49818C27.308 3.49818 26.8018 3.71087 26.3856 4.13608C25.9694 4.55866 25.7613 5.06782 25.7613 5.66111C25.7613 6.3215 26.02 6.82785 26.5374 7.18597C26.8522 7.39866 27.4007 7.61416 28.1824 7.8323C28.9642 8.05061 29.4 8.17637 29.49 8.21009C29.9173 8.36395 30.2941 8.5935 30.6203 8.89559C31.3964 9.56704 31.7846 10.4317 31.7846 11.495C31.7846 12.5107 31.4105 13.3697 30.6625 14.0692C29.9145 14.766 29.0231 15.1157 27.9883 15.1157C26.8973 15.1157 25.9805 14.7716 25.2381 14.0803C24.4957 13.3892 24.1245 12.5079 24.1245 11.4389H25.4573L25.4575 11.4388Z" fill="black"/>
<path d="M26.2588 13.1165L26.1076 13.2644L26.0613 13.2164L26.0165 13.168L25.9731 13.1188L25.9311 13.0691L25.8905 13.0187L25.8515 12.9677L25.8139 12.9163L25.7777 12.8641L25.7429 12.8114L25.7095 12.758L25.6778 12.7039L25.6474 12.6493L25.6186 12.5942L25.5913 12.5385L25.5653 12.4821L25.5408 12.425L25.5179 12.3676L25.4963 12.3095L25.4764 12.2508L25.4578 12.1916L25.4407 12.1319L25.4252 12.0715L25.4112 12.0105L25.3987 11.9492L25.3876 11.8872L25.3781 11.8247L25.3699 11.7618L25.3634 11.6983L25.3583 11.6343L25.3546 11.5697L25.3525 11.5047L25.3518 11.4392H25.5637L25.5645 11.5L25.5666 11.5602L25.5699 11.6199L25.5747 11.6791L25.5809 11.7376L25.5883 11.7956L25.5971 11.853L25.6073 11.9097L25.6188 11.9661L25.6317 12.0218L25.646 12.0769L25.6615 12.1316L25.6785 12.1857L25.6967 12.2392L25.7162 12.2923L25.7373 12.3448L25.7595 12.3968L25.7831 12.4482L25.8082 12.4993L25.8347 12.5497L25.8624 12.5998L25.8915 12.6491L25.9221 12.6982L25.954 12.7466L25.9872 12.7946L26.0218 12.842L26.0578 12.8891L26.0952 12.9356L26.134 12.9816L26.1743 13.0271L26.2159 13.0723L26.259 13.1167L26.2588 13.1165ZM27.9547 13.818V14.0291L27.8873 14.0284L27.8206 14.0261L27.7544 14.0224L27.6887 14.0172L27.6238 14.0105L27.5593 14.0022L27.4954 13.9926L27.4321 13.9813L27.3694 13.9687L27.3073 13.9545L27.246 13.9388L27.1851 13.9216L27.125 13.903L27.0655 13.8828L27.0065 13.8612L26.9483 13.838L26.8905 13.8134L26.8337 13.7871L26.7774 13.7593L26.7218 13.7302L26.6669 13.6994L26.6126 13.6673L26.5589 13.6336L26.5059 13.5985L26.4537 13.5617L26.4022 13.5236L26.3513 13.4839L26.3012 13.4428L26.2518 13.4003L26.2031 13.3564L26.155 13.3111L26.1076 13.2642L26.2588 13.1163L26.3028 13.1597L26.3473 13.2017L26.3923 13.2423L26.4378 13.2814L26.4841 13.3192L26.5307 13.3555L26.578 13.3905L26.6258 13.4242L26.6742 13.4564L26.723 13.4871L26.7726 13.5166L26.8228 13.5445L26.8734 13.5712L26.9248 13.5965L26.9767 13.6204L27.0291 13.6429L27.0822 13.664L27.1359 13.6838L27.1903 13.7022L27.2452 13.7193L27.3008 13.7349L27.3571 13.7493L27.4139 13.7623L27.4714 13.7739L27.5295 13.7843L27.5883 13.7932L27.6478 13.8008L27.7078 13.8069L27.7685 13.8117L27.8299 13.815L27.8919 13.8171L27.9545 13.8178L27.9547 13.818ZM29.7133 13.1495L29.8575 13.3043L29.8576 13.3041L29.8087 13.3485L29.759 13.3916L29.7085 13.4334L29.6573 13.4736L29.6056 13.5126L29.553 13.5502L29.4997 13.5863L29.4458 13.6211L29.3913 13.6543L29.3361 13.6863L29.2801 13.7168L29.2234 13.746L29.1661 13.7736L29.1082 13.7999L29.0496 13.8247L28.9903 13.848L28.9303 13.87L28.8697 13.8905L28.8085 13.9097L28.7465 13.9274L28.684 13.9437L28.6208 13.9585L28.5571 13.972L28.4927 13.9841L28.4276 13.9947L28.3619 14.004L28.2957 14.0117L28.2287 14.018L28.1612 14.023L28.0931 14.0265L28.0244 14.0286L27.9551 14.0293V13.8182L28.02 13.8175L28.0843 13.8155L28.148 13.8122L28.211 13.8076L28.2733 13.8017L28.3349 13.7945L28.3958 13.786L28.456 13.7762L28.5157 13.765L28.5746 13.7527L28.6329 13.739L28.6906 13.7239L28.7476 13.7075L28.8039 13.69L28.8597 13.671L28.9147 13.6508L28.9693 13.6292L29.0231 13.6065L29.0764 13.5823L29.129 13.5568L29.1809 13.5301L29.2323 13.5022L29.2829 13.4729L29.3332 13.4421L29.3828 13.4102L29.4317 13.377L29.4801 13.3424L29.5279 13.3064L29.5752 13.2691L29.6218 13.2305L29.6679 13.1905L29.7134 13.1492L29.7136 13.149L29.7133 13.1495ZM30.43 11.4754H30.642L30.6413 11.5435L30.639 11.611L30.6351 11.6777L30.6299 11.7438L30.623 11.8093L30.6147 11.8741L30.6046 11.9382L30.5931 12.0016L30.5801 12.0643L30.5656 12.1263L30.5495 12.1876L30.5319 12.2482L30.5127 12.3081L30.492 12.3673L30.4698 12.4257L30.4459 12.4834L30.4205 12.5404L30.3937 12.5966L30.3653 12.6521L30.3353 12.7069L30.3037 12.761L30.2707 12.8142L30.2361 12.8668L30.1999 12.9184L30.1623 12.9693L30.1231 13.0194L30.0825 13.0687L30.0403 13.1174L29.9967 13.165L29.9517 13.2121L29.9051 13.2582L29.8571 13.3036L29.7129 13.1488L29.7572 13.1069L29.8001 13.0643L29.8416 13.0211L29.8816 12.9772L29.9201 12.9328L29.9572 12.8877L29.993 12.8418L30.0273 12.7955L30.0601 12.7482L30.0915 12.7006L30.1215 12.6521L30.1501 12.6031L30.1773 12.5534L30.2031 12.503L30.2274 12.4519L30.2505 12.4001L30.2721 12.3476L30.2924 12.2944L30.3113 12.2406L30.3287 12.1862L30.3448 12.1309L30.3594 12.0748L30.3727 12.0181L30.3847 11.9607L30.3953 11.9024L30.4045 11.8435L30.4122 11.7838L30.4186 11.7234L30.4235 11.6623L30.427 11.6004L30.4292 11.5377L30.4299 11.4743L30.43 11.4754ZM30.2046 10.5593L30.3949 10.4662L30.4101 10.4973L30.4246 10.5282L30.4389 10.5595L30.4525 10.5905L30.4657 10.6216L30.4784 10.6529L30.4906 10.6842L30.5024 10.7154L30.5137 10.7467L30.5247 10.7781L30.5351 10.8096L30.545 10.841L30.5543 10.8723L30.5633 10.9037L30.5718 10.9351L30.5799 10.9668L30.5873 10.9984L30.5944 11.0298L30.6009 11.0614L30.6071 11.093L30.6126 11.1248L30.6177 11.1564L30.6224 11.1882L30.6265 11.22L30.6302 11.2518L30.6334 11.2836L30.6362 11.3154L30.6383 11.3474L30.6401 11.3793L30.6413 11.4113L30.642 11.4431L30.6422 11.475H30.4302L30.43 11.4462L30.4293 11.4174L30.4283 11.3886L30.4269 11.36L30.4249 11.3314L30.4226 11.3027L30.4198 11.2741L30.4165 11.2455L30.4127 11.2169L30.4085 11.1882L30.4039 11.1596L30.3988 11.1311L30.3933 11.1027L30.3873 11.0741L30.381 11.0454L30.3743 11.017L30.367 10.9885L30.3594 10.9599L30.3513 10.9314L30.3429 10.9028L30.3339 10.8744L30.3245 10.8459L30.3146 10.8173L30.3042 10.7887L30.2934 10.76L30.2821 10.7314L30.2705 10.7028L30.2583 10.6741L30.2458 10.6455L30.2327 10.6169L30.2191 10.5881L30.2052 10.5593H30.2046ZM29.6081 9.79668L29.7431 9.63404L29.7683 9.65494L29.7932 9.67619L29.8179 9.69797L29.8423 9.71992L29.8661 9.74223L29.8898 9.76489L29.9132 9.7879L29.9362 9.81125L29.9589 9.83497L29.9814 9.85885L30.0034 9.88309L30.0251 9.90768L30.0467 9.93244L30.068 9.95773L30.0889 9.98338L30.1093 10.0092L30.1296 10.0355L30.1496 10.0621L30.1692 10.0889L30.1886 10.1162L30.2075 10.1436L30.2262 10.1713L30.2445 10.1994L30.2625 10.2279L30.2802 10.2567L30.2975 10.2856L30.3146 10.315L30.3314 10.3447L30.3478 10.3747L30.3639 10.4049L30.3796 10.4355L30.3951 10.4664L30.2048 10.5595L30.1905 10.5308L30.1759 10.5026L30.1611 10.4746L30.1459 10.4471L30.1305 10.4197L30.1148 10.3926L30.0989 10.3659L30.0827 10.3396L30.0661 10.3136L30.0493 10.2878L30.0322 10.2623L30.0147 10.237L29.9971 10.2122L29.9791 10.1876L29.9609 10.1632L29.9425 10.1393L29.9236 10.1156L29.9046 10.0923L29.8853 10.0693L29.8658 10.0466L29.8458 10.0241L29.8257 10.002L29.8052 9.98021L29.7846 9.95861L29.7636 9.93736L29.7422 9.91646L29.7207 9.89573L29.6988 9.87536L29.6767 9.85516L29.6543 9.83549L29.6315 9.816L29.6086 9.79668H29.6081ZM28.726 9.29331L28.803 9.0966H28.8028L28.8364 9.10977L28.8694 9.12295L28.9024 9.13647L28.935 9.15017L28.9673 9.16422L28.9995 9.17845L29.0314 9.19302L29.063 9.20778L29.0942 9.22271L29.1253 9.23799L29.1562 9.25344L29.1867 9.26925L29.2169 9.28506L29.2469 9.30121L29.2768 9.31772L29.3062 9.33441L29.3353 9.35145L29.3643 9.36848L29.3931 9.38587L29.4217 9.40361L29.4499 9.42152L29.4778 9.43961L29.5055 9.45806L29.5329 9.47667L29.56 9.49547L29.587 9.51461L29.6137 9.53393L29.64 9.55342L29.6661 9.57327L29.6919 9.59347L29.7175 9.61384L29.7427 9.63439L29.6077 9.79703L29.5842 9.77788L29.5604 9.75892L29.5364 9.7403L29.512 9.72186L29.4875 9.70359L29.4628 9.6855L29.4379 9.66776L29.4125 9.6502L29.3869 9.63281L29.3611 9.61577L29.335 9.59874L29.3087 9.58205L29.282 9.56554L29.2552 9.54921L29.228 9.53305L29.2005 9.51724L29.1728 9.50161L29.1449 9.48616L29.1167 9.47105L29.0881 9.45595L29.0593 9.44119L29.0303 9.42679L29.001 9.41239L28.9714 9.39816L28.9416 9.38429L28.9116 9.37059L28.8814 9.35724L28.8507 9.34407L28.8198 9.33107L28.7887 9.31825L28.7573 9.3056L28.7257 9.29331H28.7255H28.726ZM27.6578 8.98086L27.7113 8.77677L27.7595 8.78924L27.8068 8.80171L27.8532 8.81383L27.8986 8.82595L27.9431 8.83772L27.9867 8.84931L28.0294 8.86072L28.0712 8.87214L28.112 8.88338L28.1519 8.89427L28.1909 8.90516L28.229 8.9157L28.2662 8.92624L28.3026 8.9366L28.3379 8.94678L28.3725 8.9568L28.406 8.96681L28.4387 8.97647L28.4705 8.98595L28.5014 8.99526L28.5314 9.00457L28.5605 9.0137L28.5887 9.02266L28.6161 9.03144L28.6426 9.04005L28.668 9.04848L28.6927 9.05673L28.7165 9.06499L28.7395 9.07307L28.7615 9.08114L28.7827 9.08905L28.8032 9.09695L28.7262 9.29366L28.7077 9.28664L28.6881 9.27944L28.6676 9.27188L28.6461 9.26433L28.6235 9.25643L28.6 9.24852L28.5755 9.24044L28.5501 9.23219L28.5238 9.22376L28.4964 9.21515L28.4682 9.20637L28.439 9.19741L28.4089 9.18828L28.3778 9.17897L28.3457 9.16949L28.3127 9.15983L28.2788 9.14999L28.2438 9.13998L28.2082 9.1298L28.1715 9.11943L28.1339 9.10889L28.0952 9.09818L28.0557 9.08729L28.0151 9.07623L27.9738 9.06499L27.9314 9.05357L27.8882 9.04198L27.8439 9.03021L27.7989 9.01827L27.7528 9.00615L27.7058 8.99385L27.658 8.98138L27.6578 8.98086ZM26.5674 8.65857L26.6424 8.46116L26.6433 8.46151L26.662 8.46871L26.6816 8.47591L26.702 8.48346L26.7236 8.49101L26.7462 8.49892L26.7696 8.50682L26.7942 8.51508L26.8196 8.52351L26.8459 8.53211L26.8733 8.54072L26.9015 8.54968L26.9306 8.55881L26.9608 8.56812L26.9919 8.5776L27.024 8.58726L27.0568 8.5971L27.0909 8.60711L27.1258 8.6173L27.1615 8.62766L27.1982 8.6382L27.2358 8.64873L27.2745 8.65962L27.314 8.67051L27.3544 8.68158L27.3959 8.69299L27.4381 8.70441L27.4813 8.716L27.5256 8.72777L27.5706 8.73989L27.6167 8.75201L27.6637 8.7643L27.7115 8.77677L27.658 8.98086L27.6098 8.96839L27.5625 8.95592L27.5161 8.94362L27.4707 8.9315L27.4262 8.91956L27.3827 8.90779L27.3399 8.8962L27.2983 8.88479L27.2573 8.87354L27.2173 8.8623L27.1783 8.85141L27.1401 8.84053L27.1029 8.82999L27.0665 8.81963L27.0312 8.80926L26.9968 8.79908L26.9631 8.78906L26.9304 8.77923L26.8987 8.76957L26.8678 8.76009L26.8378 8.7506L26.8088 8.74147L26.7806 8.73234L26.7532 8.72338L26.7268 8.7146L26.7013 8.70599L26.6766 8.69756L26.6528 8.6893L26.63 8.68123L26.608 8.67315L26.5868 8.66524L26.5665 8.65752L26.5674 8.65787V8.65857ZM25.49 8.03577L25.6278 7.87542L25.6291 7.87647L25.6546 7.89842L25.6806 7.9202L25.7069 7.94181L25.7335 7.96323L25.7607 7.98431L25.7883 8.00521L25.8162 8.02576L25.8444 8.04613L25.873 8.06633L25.9021 8.08618L25.9316 8.10585L25.9614 8.12534L25.9916 8.14449L26.0223 8.16328L26.0534 8.1819L26.0848 8.20034L26.1167 8.21861L26.149 8.23652L26.1817 8.25426L26.2147 8.27165L26.2481 8.28886L26.282 8.3059L26.3162 8.32258L26.351 8.33891L26.3861 8.35525L26.4214 8.37106L26.4574 8.38669L26.4936 8.40214L26.5303 8.41742L26.5674 8.43235L26.605 8.44711L26.6427 8.46151L26.5677 8.65892L26.5278 8.64364L26.4885 8.62818L26.4496 8.61255L26.411 8.59657L26.3729 8.58024L26.3351 8.56373L26.2975 8.54687L26.2604 8.52965L26.2239 8.51227L26.1875 8.49453L26.1517 8.47661L26.1162 8.45835L26.0811 8.4399L26.0463 8.42111L26.0119 8.40197L25.978 8.38265L25.9445 8.36298L25.9113 8.34313L25.8785 8.32293L25.846 8.30238L25.814 8.28166L25.7824 8.26076L25.7512 8.23933L25.7205 8.21773L25.6901 8.19595L25.6601 8.17382L25.6305 8.15134L25.6013 8.12868L25.5726 8.10567L25.5442 8.08231L25.5161 8.05878L25.4884 8.03489L25.4896 8.03595L25.49 8.03577ZM24.4067 5.64153H24.6187L24.6198 5.72776L24.6228 5.81295L24.6277 5.8969L24.6348 5.9798L24.6436 6.06165L24.6546 6.14226L24.6674 6.22182L24.6823 6.30033L24.699 6.37779L24.7177 6.45401L24.7384 6.52918L24.761 6.6033L24.7857 6.67636L24.8122 6.74837L24.8408 6.81951L24.8713 6.88958L24.9036 6.95843L24.938 7.0264L24.9744 7.09332L25.0127 7.15918L25.0529 7.22417L25.0953 7.2881L25.1396 7.35115L25.1858 7.41315L25.234 7.47427L25.2842 7.53434L25.3364 7.59352L25.3908 7.65183L25.4471 7.70909L25.5055 7.7653L25.5659 7.82062L25.6282 7.87507L25.4903 8.03542L25.424 7.97764L25.3597 7.91862L25.2976 7.85856L25.2374 7.79726L25.1793 7.73491L25.1234 7.67151L25.0694 7.60687L25.0175 7.54119L24.9677 7.47445L24.92 7.40648L24.8745 7.33745L24.8311 7.26737L24.7898 7.19606L24.7504 7.1237L24.7133 7.05029L24.6784 6.97582L24.6456 6.90012L24.6148 6.82355L24.5863 6.74574L24.5598 6.66688L24.5354 6.58714L24.5132 6.50635L24.4931 6.42433L24.475 6.34143L24.4592 6.25748L24.4454 6.17247L24.4337 6.08641L24.4242 5.99947L24.4168 5.91148L24.4115 5.82243L24.4083 5.73233L24.4073 5.64118L24.4067 5.64153ZM25.4619 3.16035L25.6052 3.31578L25.605 3.31596L25.5442 3.37269L25.4854 3.4303L25.4285 3.48913L25.3736 3.54885L25.3207 3.60962L25.2697 3.67144L25.2206 3.73414L25.1735 3.7979L25.1283 3.86253L25.0851 3.92822L25.0438 3.99514L25.0044 4.06293L24.967 4.1316L24.9315 4.20151L24.8978 4.27229L24.866 4.3443L24.8362 4.41736L24.8083 4.49148L24.7823 4.56665L24.7583 4.64287L24.7361 4.72015L24.7158 4.79849L24.6974 4.87787L24.681 4.95831L24.6666 5.03981L24.654 5.12253L24.6434 5.20631L24.6348 5.29114L24.6279 5.37702L24.623 5.46414L24.62 5.55231L24.6189 5.64153H24.4069L24.408 5.54774L24.411 5.45483L24.4161 5.36297L24.4233 5.27217L24.4325 5.18225L24.4438 5.09337L24.4572 5.00556L24.4726 4.91879L24.4901 4.83291L24.5096 4.74825L24.5312 4.66465L24.5548 4.58193L24.5806 4.50043L24.6085 4.41982L24.6385 4.34043L24.6704 4.2621L24.7045 4.18482L24.7407 4.1086L24.7788 4.0336L24.8191 3.95948L24.8614 3.88659L24.9057 3.81494L24.9521 3.74415L25.0007 3.6746L25.0512 3.60628L25.1038 3.53919L25.1585 3.47315L25.2151 3.40817L25.2737 3.34441L25.3345 3.28171L25.3971 3.22024L25.4619 3.16L25.4617 3.16017L25.4619 3.16035ZM28.0558 2.20068V2.4118L27.9646 2.41267L27.8742 2.41531L27.7849 2.4197L27.6965 2.42602L27.6091 2.43393L27.5226 2.44359L27.4372 2.45518L27.3528 2.46853L27.2693 2.48363L27.1867 2.50049L27.1052 2.51893L27.0245 2.53931L26.9447 2.56144L26.866 2.58532L26.7884 2.61096L26.7114 2.63836L26.6355 2.66752L26.5605 2.69843L26.4865 2.7311L26.4133 2.76552L26.3411 2.8017L26.2696 2.83964L26.1992 2.87933L26.1296 2.92078L26.061 2.96399L25.9932 3.00895L25.9263 3.05585L25.8603 3.10432L25.7951 3.15473L25.7309 3.20689L25.6675 3.26081L25.605 3.31649L25.4617 3.16105L25.5277 3.10204L25.5948 3.04496L25.6629 2.98963L25.732 2.93624L25.802 2.8846L25.8732 2.8349L25.9452 2.78695L26.0183 2.74093L26.0924 2.69685L26.1674 2.6547L26.2433 2.6143L26.3203 2.57584L26.3983 2.53913L26.4772 2.50435L26.557 2.47151L26.6378 2.4406L26.7195 2.41162L26.8021 2.3844L26.8858 2.35911L26.9703 2.33575L27.0558 2.31414L27.1422 2.29447L27.2296 2.27673L27.3179 2.26093L27.407 2.24688L27.497 2.23476L27.5881 2.22439L27.6799 2.21614L27.7726 2.20964L27.8663 2.2049L27.9607 2.20209L28.0562 2.20103L28.0558 2.20068ZM30.5506 3.19583L30.4032 3.34757L30.3418 3.28979L30.2797 3.23394L30.2168 3.17984L30.1531 3.12768L30.0887 3.07727L30.0236 3.0288L29.9577 2.98225L29.891 2.93747L29.8236 2.89461L29.7554 2.85352L29.6866 2.81435L29.6169 2.77694L29.5465 2.74128L29.4751 2.70756L29.4031 2.6756L29.3304 2.64556L29.2568 2.61729L29.1825 2.59077L29.1073 2.56618L29.0314 2.54335L28.9546 2.52227L28.8771 2.50313L28.7988 2.48574L28.7195 2.47028L28.6396 2.45658L28.5587 2.44464L28.477 2.43463L28.3946 2.42637L28.3111 2.42005L28.2269 2.41548L28.1418 2.41267L28.056 2.4118V2.20068L28.1466 2.20174L28.2362 2.20472L28.3252 2.20964L28.4133 2.21649L28.5006 2.22527L28.5873 2.23599L28.6731 2.24863L28.7582 2.26321L28.8424 2.27972L28.9259 2.29816L29.0085 2.31853L29.0904 2.34101L29.1712 2.36525L29.2515 2.3916L29.3309 2.41987L29.4095 2.44991L29.4871 2.48205L29.5641 2.51612L29.6402 2.55213L29.7154 2.59006L29.7899 2.62993L29.8633 2.67191L29.936 2.71564L30.0078 2.76131L30.0788 2.8089L30.1489 2.85843L30.2181 2.90989L30.2864 2.96329L30.3538 3.01861L30.4205 3.07587L30.4864 3.13506L30.5511 3.196L30.5506 3.19583ZM31.4808 5.76957V5.55845L31.3747 5.66401L31.3737 5.5776L31.3708 5.49206L31.3661 5.40758L31.3595 5.32416L31.3509 5.24143L31.3405 5.15959L31.3281 5.0788L31.3138 4.99906L31.2976 4.92002L31.2796 4.84204L31.2596 4.76494L31.2377 4.68871L31.2141 4.61354L31.1885 4.53925L31.1611 4.46566L31.1318 4.39312L31.1006 4.32146L31.0674 4.25051L31.0325 4.18043L30.9956 4.11123L30.9567 4.04308L30.916 3.97564L30.8734 3.90908L30.829 3.84339L30.7825 3.77858L30.7342 3.71447L30.6839 3.65124L30.6316 3.58889L30.5774 3.52742L30.5213 3.46665L30.4632 3.40676L30.4032 3.34775L30.5506 3.196L30.6141 3.25853L30.6757 3.32193L30.7354 3.38639L30.7929 3.45172L30.8485 3.51811L30.9022 3.58556L30.9537 3.65388L31.0033 3.72325L31.0508 3.79351L31.0964 3.86464L31.14 3.93683L31.1814 4.00989L31.221 4.08401L31.2584 4.159L31.2939 4.23488L31.3274 4.3118L31.3588 4.38961L31.3881 4.46829L31.4155 4.54786L31.4407 4.62847L31.464 4.70997L31.4854 4.79234L31.5046 4.87559L31.5217 4.95972L31.5369 5.04472L31.55 5.13061L31.5611 5.21737L31.5703 5.30501L31.5773 5.39353L31.5823 5.48293L31.5853 5.57303L31.5863 5.66419L31.4803 5.76974L31.4808 5.76957ZM31.5869 5.66401V5.76957H31.4808L31.5869 5.66401ZM30.1817 5.55845H31.4808V5.76957H30.1817L30.0756 5.66401L30.1817 5.55845ZM30.1817 5.76957H30.0756V5.66401L30.1817 5.76957ZM29.4591 4.18763L29.6049 4.03448L29.6465 4.07487L29.6871 4.11597L29.7263 4.15777L29.7643 4.20028L29.801 4.24348L29.8363 4.28739L29.8702 4.332L29.903 4.37732L29.9344 4.42333L29.9644 4.47005L29.9932 4.51747L30.0207 4.5656L30.0467 4.61442L30.0716 4.66395L30.0949 4.71418L30.1169 4.76494L30.1376 4.8164L30.157 4.86856L30.175 4.92143L30.1916 4.97482L30.2069 5.02892L30.2209 5.08354L30.2336 5.13886L30.2449 5.19472L30.255 5.25127L30.2636 5.30853L30.2708 5.36631L30.2768 5.42462L30.2814 5.48346L30.2848 5.543L30.2867 5.60324L30.2874 5.66401H30.0754L30.0747 5.60781L30.0728 5.55231L30.0698 5.49751L30.0656 5.44341L30.0601 5.39002L30.0534 5.33733L30.0456 5.28517L30.0364 5.23388L30.0262 5.18312L30.0147 5.13307L30.002 5.08354L29.9882 5.03489L29.9732 4.98677L29.957 4.93934L29.9395 4.89245L29.921 4.84626L29.9012 4.80077L29.8802 4.75581L29.858 4.71137L29.8345 4.66746L29.81 4.62426L29.7842 4.58158L29.7572 4.5396L29.7291 4.49833L29.6997 4.4574L29.6689 4.41718L29.637 4.37749L29.6038 4.33832L29.5694 4.29969L29.5339 4.26175L29.497 4.22434L29.4589 4.18745L29.4591 4.18763ZM27.9039 3.60382V3.39271L27.9669 3.39341L28.0292 3.39535L28.091 3.39851L28.1522 3.40272L28.2128 3.40834L28.2726 3.41519L28.3319 3.42327L28.3907 3.43258L28.4488 3.44312L28.5061 3.45506L28.5631 3.46823L28.6193 3.48264L28.6749 3.49827L28.7298 3.5153L28.7841 3.53357L28.8378 3.55289L28.8907 3.57361L28.9432 3.59557L28.9949 3.61875L29.0459 3.64317L29.0964 3.66898L29.146 3.69603L29.195 3.72431L29.2434 3.75381L29.291 3.78455L29.338 3.81652L29.3842 3.84971L29.4298 3.88414L29.4748 3.91979L29.5189 3.95685L29.5623 3.99496L29.6051 4.0343L29.4593 4.18745L29.4201 4.15145L29.3804 4.1165L29.3401 4.08278L29.2993 4.05028L29.2579 4.01885L29.2159 3.98864L29.1733 3.95966L29.1301 3.93173L29.0863 3.90504L29.042 3.87939L28.997 3.85498L28.9514 3.83162L28.9052 3.80949L28.8584 3.78841L28.8109 3.76857L28.7629 3.74978L28.7142 3.73221L28.6648 3.7157L28.6148 3.70042L28.5642 3.6862L28.5128 3.67302L28.4609 3.66108L28.4083 3.65019L28.355 3.64053L28.301 3.63192L28.2465 3.62455L28.1911 3.61823L28.1351 3.61313L28.0784 3.60909L28.0211 3.60628L27.963 3.60453L27.9042 3.604L27.9039 3.60382ZM26.4611 4.21011L26.3097 4.0624L26.3095 4.06258L26.3506 4.02166L26.3921 3.98196L26.4343 3.9435L26.477 3.90644L26.5204 3.87061L26.5644 3.83601L26.609 3.80264L26.6542 3.77068L26.6999 3.73994L26.7463 3.71043L26.7931 3.68216L26.8406 3.65528L26.8886 3.62964L26.9373 3.60523L26.9866 3.58222L27.0363 3.56062L27.0866 3.54024L27.1375 3.5211L27.1888 3.50336L27.2407 3.48703L27.2932 3.47192L27.3461 3.45822L27.3996 3.44575L27.4536 3.43469L27.5081 3.42485L27.5632 3.41642L27.6188 3.40922L27.6748 3.40342L27.7313 3.39886L27.7884 3.39552L27.846 3.39359L27.9039 3.39289V3.604L27.8506 3.60453L27.798 3.60628L27.7459 3.60927L27.6944 3.61348L27.6434 3.61875L27.593 3.62525L27.5433 3.63298L27.4939 3.64176L27.4451 3.65195L27.3969 3.66319L27.3493 3.67566L27.302 3.68918L27.2554 3.70393L27.2091 3.71974L27.1636 3.73678L27.1184 3.75504L27.0738 3.77454L27.0296 3.79509L26.986 3.81687L26.9428 3.83988L26.9001 3.86411L26.8579 3.88958L26.8162 3.9161L26.7749 3.94385L26.734 3.97283L26.6937 4.00304L26.6539 4.03448L26.6145 4.06715L26.5755 4.10104L26.537 4.13617L26.4989 4.17253L26.4613 4.21011L26.4611 4.21029V4.21011ZM25.8672 5.6612H25.6552L25.6559 5.60359L25.6578 5.54634L25.661 5.48961L25.6654 5.43323L25.6712 5.37738L25.6783 5.32205L25.6866 5.26725L25.6961 5.21281L25.7071 5.15871L25.7192 5.10532L25.7327 5.05228L25.7473 4.99976L25.7634 4.94777L25.7807 4.89631L25.7992 4.84538L25.8192 4.79497L25.8403 4.74509L25.8627 4.69574L25.8864 4.64691L25.9115 4.59861L25.9378 4.55084L25.9653 4.5036L25.9941 4.45688L26.0241 4.41086L26.0555 4.36537L26.0881 4.32041L26.122 4.27597L26.1572 4.23207L26.1935 4.18886L26.2311 4.14601L26.2699 4.10385L26.31 4.0624L26.4615 4.21011L26.4246 4.24822L26.3891 4.28686L26.3549 4.32585L26.3217 4.36537L26.2897 4.40542L26.2588 4.44581L26.2292 4.48674L26.2008 4.52801L26.1736 4.56981L26.1475 4.61196L26.1226 4.65464L26.0989 4.69767L26.0763 4.74123L26.055 4.78514L26.0347 4.82957L26.0156 4.87454L25.9978 4.91985L25.981 4.96586L25.9653 5.01223L25.9508 5.05913L25.9374 5.10655L25.9252 5.1545L25.9141 5.2028L25.9042 5.25162L25.8956 5.30097L25.888 5.35085L25.8816 5.40126L25.8765 5.4522L25.8725 5.50366L25.8695 5.55564L25.8677 5.60816L25.867 5.6612H25.8672ZM26.5967 7.09876L26.4777 7.27334L26.4766 7.27264L26.4265 7.23699L26.378 7.20028L26.3308 7.16269L26.2853 7.12406L26.2414 7.08454L26.1988 7.04397L26.1579 7.00252L26.1185 6.96001L26.0807 6.91646L26.0446 6.87202L26.01 6.82653L25.9769 6.78016L25.9454 6.73274L25.9155 6.68444L25.8873 6.63509L25.8606 6.58486L25.8356 6.53375L25.8121 6.48159L25.7904 6.42854L25.7703 6.37463L25.7517 6.31983L25.735 6.26433L25.7196 6.20777L25.706 6.15034L25.694 6.09203L25.6836 6.03284L25.6749 5.97295L25.6677 5.91236L25.6621 5.85071L25.6582 5.78836L25.6557 5.72513L25.655 5.66102H25.867L25.8677 5.71986L25.8698 5.77764L25.8735 5.83455L25.8785 5.8904L25.885 5.94555L25.8929 5.99965L25.9023 6.05269L25.9131 6.10485L25.9252 6.15596L25.9388 6.20619L25.9538 6.25555L25.9702 6.30402L25.9881 6.35162L26.0073 6.39834L26.0278 6.44418L26.0498 6.48914L26.0731 6.53322L26.0979 6.57643L26.1242 6.61893L26.1519 6.66056L26.181 6.70148L26.2115 6.74152L26.2435 6.78069L26.2768 6.81915L26.3118 6.85692L26.3481 6.8938L26.3861 6.92998L26.4255 6.96546L26.4662 7.00006L26.5086 7.03396L26.5525 7.06715L26.5979 7.09947L26.5968 7.09876H26.5967ZM28.2108 7.73087L28.1535 7.93408L28.0804 7.91353L28.0087 7.89298L27.9383 7.87243L27.8693 7.85188L27.8017 7.83133L27.7353 7.81078L27.6704 7.79023L27.6068 7.76969L27.5445 7.74914L27.4834 7.72859L27.424 7.70804L27.3655 7.68749L27.3085 7.66694L27.2531 7.64639L27.1987 7.62584L27.1458 7.60529L27.0942 7.58474L27.0439 7.56419L26.995 7.54364L26.9474 7.5231L26.9011 7.50255L26.8561 7.48182L26.8125 7.46127L26.7702 7.44055L26.729 7.41982L26.6893 7.3991L26.6509 7.37837L26.6138 7.35765L26.5778 7.33675L26.5432 7.31585L26.5098 7.29477L26.4779 7.2737L26.5968 7.09912L26.6253 7.11791L26.6551 7.1367L26.6863 7.15567L26.719 7.17481L26.7532 7.19396L26.7889 7.21328L26.8259 7.2326L26.8644 7.25209L26.9045 7.27159L26.9458 7.29126L26.9887 7.31075L27.0328 7.33043L27.0784 7.3501L27.1255 7.36977L27.1738 7.38961L27.2236 7.40946L27.2748 7.42931L27.3274 7.44915L27.3814 7.46918L27.4368 7.4892L27.4937 7.50922L27.5519 7.52924L27.6114 7.54926L27.6725 7.56946L27.735 7.58966L27.7987 7.60986L27.8638 7.63006L27.9305 7.65025L27.9985 7.67045L28.0679 7.69065L28.1386 7.71102L28.2108 7.7314V7.73087ZM29.5258 8.11094L29.4536 8.30941L29.4524 8.30906L29.4448 8.30625L29.4347 8.30273L29.422 8.29852L29.407 8.2936L29.3902 8.28833L29.3712 8.28236L29.3496 8.27586L29.3263 8.26866L29.3009 8.26111L29.2734 8.25285L29.2439 8.24407L29.2123 8.23476L29.1788 8.22475L29.1431 8.21439L29.1054 8.2035L29.0656 8.19191L29.0238 8.17997L28.98 8.16732L28.9341 8.15415L28.8863 8.14045L28.8365 8.12622L28.7846 8.11147L28.7306 8.09619L28.6747 8.08038L28.6168 8.06405L28.5568 8.04701L28.4946 8.02962L28.4304 8.01153L28.3644 7.99292L28.2963 7.97377L28.226 7.9541L28.1538 7.9339L28.2112 7.73069L28.2835 7.75089L28.3538 7.77056L28.4219 7.78971L28.4883 7.80832L28.5525 7.82642L28.6147 7.8438L28.6749 7.86084L28.7331 7.87717L28.7892 7.89316L28.8432 7.90844L28.8953 7.92319L28.9454 7.93742L28.9935 7.95112L29.0395 7.96429L29.0835 7.97693L29.1255 7.98905L29.1655 8.00064L29.2035 8.01171L29.2395 8.02225L29.2734 8.03226L29.3053 8.04174L29.3352 8.0507L29.3631 8.05913L29.389 8.06686L29.413 8.07423L29.4347 8.08091L29.4548 8.08706L29.4732 8.09285L29.4893 8.09812L29.5036 8.10286L29.5164 8.10725L29.5276 8.11129L29.5263 8.11094H29.5258ZM30.6897 8.81611L30.5506 8.97524L30.548 8.97295L30.5181 8.94573L30.4881 8.91886L30.4578 8.89251L30.427 8.86652L30.3962 8.84088L30.3651 8.81576L30.3337 8.791L30.3019 8.76676L30.2698 8.74287L30.2375 8.71934L30.205 8.69633L30.1722 8.67367L30.139 8.65137L30.1056 8.62959L30.0719 8.60816L30.0378 8.58726L30.0034 8.56671L29.9688 8.54651L29.9341 8.52684L29.8988 8.50752L29.8633 8.48873L29.8275 8.47029L29.7914 8.4522L29.7551 8.43464L29.7184 8.41742L29.6815 8.40074L29.6442 8.3844L29.6066 8.3686L29.5687 8.35314L29.5306 8.33804L29.4921 8.32346L29.4534 8.30923L29.5256 8.11077L29.5668 8.12587L29.6075 8.1415L29.6481 8.15749L29.6884 8.17399L29.7283 8.19086L29.768 8.20824L29.8073 8.22616L29.8463 8.24442L29.885 8.26304L29.9235 8.28236L29.9616 8.30203L29.9994 8.32223L30.0368 8.34278L30.074 8.36385L30.1109 8.38528L30.1476 8.40724L30.184 8.42972L30.22 8.45255L30.2558 8.47591L30.2911 8.49962L30.3263 8.52368L30.3612 8.54827L30.3956 8.57339L30.4297 8.59885L30.4636 8.62485L30.4971 8.65119L30.5303 8.67806L30.5631 8.70529L30.5958 8.73304L30.6281 8.76114L30.66 8.78977L30.6918 8.81875L30.6892 8.81646L30.6897 8.81611ZM31.8903 11.4951H31.6783L31.6772 11.3985L31.6739 11.3029L31.6684 11.2088L31.6607 11.1157L31.6508 11.0238L31.6386 10.9334L31.6243 10.844L31.6079 10.7556L31.5892 10.6685L31.5683 10.5826L31.5452 10.498L31.52 10.4144L31.4924 10.332L31.4628 10.2507L31.4308 10.1706L31.3968 10.0916L31.3604 10.0138L31.3221 9.93701L31.2815 9.86131L31.2386 9.78667L31.1936 9.71325L31.1463 9.64089L31.0969 9.56958L31.0452 9.49933L30.9913 9.43013L30.9352 9.36216L30.8768 9.29507L30.8161 9.22903L30.7532 9.16404L30.6881 9.10011L30.6208 9.03741L30.5511 8.97559L30.6902 8.81646L30.7638 8.88162L30.8351 8.94819L30.9041 9.01581L30.9709 9.08466L31.0353 9.15474L31.0974 9.22604L31.1573 9.29858L31.2148 9.37235L31.2699 9.44734L31.3226 9.52357L31.3731 9.60085L31.4213 9.67953L31.467 9.75927L31.5106 9.84023L31.5518 9.92243L31.5906 10.0057L31.6269 10.0902L31.661 10.1759L31.6928 10.2628L31.7221 10.351L31.7491 10.44L31.7738 10.5303L31.796 10.6218L31.816 10.7144L31.8336 10.8082L31.8488 10.903L31.8617 10.9991L31.8721 11.0962L31.8802 11.1944L31.8861 11.2936L31.8896 11.3941L31.8906 11.4956L31.8903 11.4951ZM30.7347 14.1463L30.5898 13.9922L30.5896 13.9924L30.6569 13.9279L30.722 13.8626L30.7848 13.7966L30.8455 13.7296L30.904 13.6619L30.9605 13.5932L31.0146 13.5236L31.0667 13.4532L31.1167 13.3819L31.1645 13.3097L31.21 13.2368L31.2535 13.1629L31.2948 13.0881L31.3339 13.0125L31.3712 12.936L31.4061 12.8585L31.439 12.7802L31.4697 12.701L31.4983 12.6209L31.5247 12.5399L31.5491 12.4581L31.5715 12.3752L31.5916 12.2914L31.6096 12.2066L31.6255 12.121L31.6393 12.0344L31.6509 11.9468L31.6605 11.8583L31.6679 11.7689L31.6732 11.6786L31.6764 11.5873L31.6774 11.4949H31.8894L31.8883 11.592L31.885 11.6884L31.8793 11.7838L31.8714 11.8783L31.8612 11.9719L31.8488 12.0646L31.8342 12.1565L31.8172 12.2475L31.798 12.3376L31.7764 12.4268L31.7528 12.515L31.7268 12.6023L31.6986 12.6887L31.6681 12.7742L31.6352 12.8587L31.6001 12.9421L31.5627 13.0248L31.5232 13.1065L31.4813 13.1871L31.4372 13.2669L31.3908 13.3455L31.3422 13.4233L31.2914 13.5001L31.2385 13.5758L31.1832 13.6506L31.1257 13.7244L31.066 13.7971L31.004 13.8689L30.94 13.9397L30.8736 14.0094L30.8049 14.0781L30.7342 14.1459L30.734 14.1461L30.7347 14.1463ZM27.9881 15.2211V15.01L28.0823 15.009L28.1759 15.006L28.2684 15.0009L28.3601 14.9939L28.4509 14.9849L28.5409 14.9738L28.6299 14.9608L28.7181 14.9459L28.8055 14.9291L28.892 14.9101L28.9776 14.8892L29.0625 14.8664L29.1465 14.8416L29.2296 14.8147L29.3119 14.7859L29.3934 14.755L29.4741 14.7223L29.5539 14.6876L29.6331 14.6508L29.7113 14.612L29.7888 14.5713L29.8656 14.5286L29.9415 14.484L30.0165 14.4373L30.0908 14.3886L30.1642 14.3379L30.2369 14.2852L30.309 14.2306L30.3801 14.174L30.4505 14.1152L30.5202 14.0544L30.5891 13.9917L30.734 14.1457L30.6618 14.2116L30.5887 14.2753L30.5148 14.3372L30.4398 14.3969L30.3639 14.4545L30.2871 14.51L30.2094 14.5634L30.1309 14.6148L30.0514 14.6642L29.9711 14.7114L29.8899 14.7566L29.8079 14.7998L29.7249 14.8407L29.6411 14.8797L29.5563 14.9166L29.4707 14.9514L29.3844 14.984L29.297 15.0146L29.209 15.043L29.12 15.0694L29.0302 15.0936L28.9394 15.1158L28.8478 15.1356L28.7555 15.1535L28.6623 15.1693L28.5683 15.1828L28.4735 15.1944L28.3778 15.2039L28.2814 15.2113L28.1842 15.2166L28.086 15.2197L27.9872 15.2208L27.9881 15.2211ZM25.1655 14.1573L25.3105 14.0033L25.3788 14.0653L25.448 14.1255L25.5182 14.1837L25.5893 14.2397L25.6615 14.2938L25.7346 14.3459L25.8087 14.396L25.8838 14.4441L25.9598 14.4903L26.037 14.5346L26.115 14.5767L26.1941 14.617L26.274 14.6552L26.3549 14.6916L26.4368 14.726L26.5199 14.7583L26.6039 14.7887L26.6888 14.8172L26.7748 14.8437L26.8618 14.8683L26.9499 14.8908L27.039 14.9115L27.1292 14.9301L27.2204 14.9468L27.3128 14.9615L27.406 14.9744L27.5002 14.9853L27.5957 14.994L27.6922 15.0011L27.7899 15.006L27.8885 15.009L27.9882 15.0098V15.221L27.8843 15.2199L27.7814 15.2167L27.6795 15.2116L27.5786 15.2044L27.4787 15.1951L27.3796 15.1837L27.2817 15.1704L27.1846 15.1549L27.0886 15.1374L26.9936 15.1177L26.8997 15.0959L26.8067 15.072L26.7147 15.046L26.6238 15.0181L26.5338 14.9881L26.445 14.9559L26.3571 14.9217L26.2703 14.8853L26.1845 14.8469L26.0998 14.8063L26.0161 14.7636L25.9335 14.7188L25.852 14.6719L25.7715 14.6231L25.6921 14.5722L25.6137 14.5191L25.5364 14.464L25.4601 14.4069L25.3849 14.3475L25.3108 14.2862L25.2377 14.2228L25.1657 14.1573H25.1655ZM24.1245 11.3333V11.5444L24.2306 11.4389L24.2316 11.5362L24.2348 11.6324L24.2401 11.7274L24.2475 11.8214L24.2571 11.9141L24.2685 12.0058L24.2823 12.0963L24.2982 12.1857L24.3162 12.2738L24.3363 12.3609L24.3584 12.447L24.3827 12.5318L24.409 12.6156L24.4375 12.6983L24.468 12.7798L24.5006 12.8603L24.5354 12.9396L24.5723 13.0178L24.6113 13.0951L24.6523 13.1713L24.6955 13.2463L24.7407 13.3202L24.788 13.3931L24.8376 13.4651L24.8891 13.5361L24.9428 13.6058L24.9987 13.6747L25.0566 13.7425L25.1168 13.8092L25.1791 13.8749L25.2436 13.9395L25.3103 14.0031L25.1654 14.1571L25.0949 14.09L25.0268 14.0217L24.9608 13.9522L24.8969 13.8816L24.8353 13.8097L24.776 13.7367L24.7188 13.6624L24.6639 13.587L24.6111 13.5105L24.5607 13.4327L24.5125 13.3538L24.4664 13.2737L24.4226 13.1926L24.3811 13.1102L24.3418 13.0266L24.3047 12.9421L24.2699 12.8562L24.2375 12.7693L24.2071 12.6813L24.179 12.5922L24.1533 12.502L24.1298 12.4106L24.1086 12.3183L24.0896 12.2246L24.0728 12.1302L24.0583 12.0346L24.046 11.938L24.0359 11.8404L24.0281 11.7416L24.0227 11.6417L24.0193 11.5409L24.0182 11.439L24.1243 11.3335L24.1245 11.3333ZM24.0184 11.4389V11.3333H24.1245L24.0184 11.4389ZM25.4573 11.5444H24.1245V11.3333H25.4573L25.5634 11.4389L25.4573 11.5444ZM25.4573 11.3333H25.5634V11.4389L25.4573 11.3333Z" fill="black"/>
<path d="M35.142 3.6325H32.2738V2.50757H39.225V3.6325H36.3907V14.9144H35.142V3.6325Z" fill="black"/>
<path d="M32.2738 3.52686H35.142V3.73797H32.2738L32.1677 3.63242L32.2738 3.52686ZM32.2738 3.73797H32.1677V3.63242L32.2738 3.73797ZM32.3798 2.50766V3.63242H32.1679V2.50766L32.2739 2.4021L32.38 2.50766H32.3798ZM32.1679 2.50766V2.4021H32.2739L32.1679 2.50766ZM39.2251 2.61321H32.2739V2.4021H39.2251L39.3312 2.50766L39.2251 2.61321ZM39.2251 2.4021H39.3312V2.50766L39.2251 2.4021ZM39.1191 3.63242V2.50766H39.3311V3.63242L39.225 3.73797L39.1189 3.63242H39.1191ZM39.3311 3.63242V3.73797H39.225L39.3311 3.63242ZM36.3906 3.52686H39.2251V3.73797H36.3906L36.2845 3.63242L36.3906 3.52686ZM36.2845 3.63242V3.52686H36.3906L36.2845 3.63242ZM36.2845 14.9143V3.63242H36.4965V14.9143L36.3904 15.0198L36.2844 14.9143H36.2845ZM36.4965 14.9143V15.0198H36.3904L36.4965 14.9143ZM35.142 14.8087H36.3906V15.0198H35.142L35.0359 14.9143L35.142 14.8087ZM35.142 15.0198H35.0359V14.9143L35.142 15.0198ZM35.2481 3.63242V14.9143H35.0361V3.63242L35.1422 3.52686L35.2483 3.63242H35.2481ZM35.142 3.52686H35.2481V3.63242L35.142 3.52686Z" fill="black"/>
<path d="M43.5443 2.50732H44.9277L50.2761 14.9139L48.9179 14.9167L47.1238 10.7504H41.3088L39.5063 14.9111L38.1622 14.9139L43.5445 2.50732H43.5443ZM46.6206 9.62559L44.2362 3.92311L41.7981 9.62559H46.6206Z" fill="black"/>
<path d="M44.9277 2.6129H43.5443V2.40179H44.9277L45.0252 2.46572L44.9277 2.6129ZM44.9277 2.40179H44.9976L45.0252 2.46572L44.9277 2.40179ZM50.1786 14.9556L44.8303 2.54897L45.0252 2.46572L50.3735 14.8723L50.2762 15.0193L50.1785 14.9554L50.1786 14.9556ZM50.3735 14.8723L50.4367 15.0192L50.2762 15.0195L50.3735 14.8725V14.8723ZM48.9175 14.8112L50.2757 14.8084L50.2762 15.0193L48.918 15.0221L48.8202 14.9582L48.9175 14.8112ZM48.918 15.0221L48.8479 15.0223L48.8204 14.9582L48.9182 15.0221H48.918ZM47.2213 10.7087L49.0153 14.8751L48.8204 14.9582L47.0264 10.7918L47.1238 10.6448L47.2213 10.7087ZM47.1238 10.6448H47.1937L47.2213 10.7087L47.1238 10.6448ZM41.3088 10.6448H47.1238V10.8559H41.3088L41.2114 10.7086L41.3088 10.6448ZM41.2114 10.7086L41.2391 10.6448H41.3088L41.2114 10.7086ZM39.4089 14.8693L41.2114 10.7086L41.4062 10.7922L39.6037 14.9529L39.5067 15.0167L39.4091 14.8693H39.4089ZM39.6037 14.9529L39.5762 15.0165L39.5065 15.0167L39.6036 14.9529H39.6037ZM38.1619 14.8084L39.506 14.8056L39.5065 15.0165L38.1624 15.0193L38.0648 14.872L38.1619 14.8084ZM38.1624 15.0193L38.0007 15.0197L38.0648 14.872L38.1624 15.0193ZM43.6417 2.54914L38.2595 14.9558L38.0648 14.872L43.447 2.46537L43.5443 2.40161L43.6415 2.54897L43.6417 2.54914ZM43.447 2.46537L43.4747 2.40161H43.5444L43.4472 2.46537H43.447ZM44.334 3.88256L46.7184 9.58504L46.5226 9.66619L44.1382 3.9637L44.1386 3.88185L44.3341 3.88256H44.334ZM44.1384 3.88185L44.237 3.65107L44.334 3.88256L44.1384 3.88185ZM41.7003 9.58434L44.1384 3.88185L44.3336 3.9644L41.8955 9.66689L41.7979 9.73117L41.7003 9.58434ZM41.7979 9.73117H41.6376L41.7005 9.58434L41.7981 9.73117H41.7979ZM46.6204 9.73117H41.7979V9.52006H46.6204L46.7184 9.58504L46.6204 9.73117ZM46.7184 9.58504L46.7795 9.73117H46.6204L46.7184 9.58504Z" fill="black"/>
<path d="M51.7439 2.50757L53.4255 2.51038L60.416 12.8185V2.50757H61.6646V14.9144H60.416L52.9923 4.00186V14.9144H51.7439V2.50757Z" fill="black"/>
<path d="M53.4253 2.61578L51.7438 2.61297L51.7441 2.40203L53.4257 2.40484L53.5134 2.45121L53.4253 2.61578ZM53.4257 2.40484L53.482 2.40502L53.5134 2.45138L53.4257 2.40502V2.40484ZM60.3282 12.8775L53.3376 2.56941L53.5134 2.45138L60.504 12.7595L60.5221 12.8185L60.3282 12.8775ZM60.5221 12.8185V13.1635L60.3282 12.8775L60.5221 12.8185ZM60.5221 2.50759V12.8185H60.3102V2.50759L60.4162 2.40203L60.5223 2.50759H60.5221ZM60.3102 2.50759V2.40203H60.4162L60.3102 2.50759ZM61.6647 2.61314H60.4161V2.40203H61.6647L61.7708 2.50759L61.6647 2.61314ZM61.6647 2.40203H61.7708V2.50759L61.6647 2.40203ZM61.5586 14.9142V2.50759H61.7706V14.9142L61.6645 15.0198L61.5584 14.9142H61.5586ZM61.7706 14.9142V15.0198H61.6645L61.7706 14.9142ZM60.4161 14.8086H61.6647V15.0198H60.4161L60.3283 14.9734L60.4161 14.8086ZM60.4161 15.0198H60.3598L60.3282 14.9734L60.4159 15.0198H60.4161ZM53.0803 3.94252L60.504 14.855L60.3283 14.9734L52.9046 4.06089L52.8865 4.00171L53.0803 3.94252ZM52.8865 4.00171V3.65764L53.0803 3.94252L52.8865 4.00171ZM52.8865 14.9142V4.00171H53.0984V14.9142L52.9924 15.0198L52.8863 14.9142H52.8865ZM53.0984 14.9142V15.0198H52.9924L53.0984 14.9142ZM51.7439 14.8086H52.9924V15.0198H51.7439L51.6378 14.9142L51.7439 14.8086ZM51.7439 15.0198H51.6378V14.9142L51.7439 15.0198ZM51.85 2.50759V14.9142H51.638V2.50759L51.7443 2.40203L51.8502 2.50759H51.85ZM51.638 2.50759V2.40186L51.7443 2.40203L51.638 2.50759Z" fill="black"/>
<path d="M64.2299 2.50757H67.5873C68.5884 2.50757 69.4826 2.61119 70.2698 2.81826C71.0572 3.02534 71.7994 3.41138 72.4968 3.97657C73.1942 4.54176 73.7454 5.24131 74.1503 6.07522C74.5552 6.90913 74.7577 7.77922 74.7577 8.68585C74.7577 9.55892 74.5805 10.3983 74.2262 11.2041C73.872 12.0099 73.3574 12.7179 72.6825 13.3279C72.0075 13.9378 71.2371 14.366 70.3709 14.6121C69.6511 14.8135 68.7513 14.9142 67.6714 14.9142H64.2297V2.50757H64.2299ZM67.0812 13.7894C68.1385 13.7894 68.9202 13.739 69.4265 13.6384C70.2363 13.4817 70.9561 13.1515 71.586 12.648C72.8683 11.6518 73.5094 10.3312 73.5094 8.68585C73.5094 7.08529 72.8627 5.77594 71.5692 4.75744C70.9506 4.2762 70.2419 3.95725 69.4434 3.80059C68.881 3.68871 68.0936 3.63268 67.0814 3.63268H65.4785V13.7896H67.0814L67.0812 13.7894Z" fill="black"/>
<path d="M67.5865 2.61297H64.2291V2.40186H67.5865V2.61297ZM70.2962 2.71606L70.242 2.92015L70.1689 2.90136L70.0951 2.88309L70.0208 2.86553L69.9458 2.84849L69.8701 2.83198L69.7938 2.81618L69.7169 2.8009L69.6394 2.78614L69.5612 2.77209L69.4823 2.75857L69.4029 2.74557L69.3227 2.73328L69.2421 2.72169L69.1607 2.71062L69.0788 2.70008L68.996 2.69025L68.9127 2.68094L68.8289 2.67233L68.7443 2.66425L68.6591 2.6567L68.5733 2.64968L68.4868 2.64335L68.3998 2.63756L68.3121 2.63246L68.2236 2.6279L68.1347 2.62403L68.045 2.6207L67.9546 2.61789L67.8637 2.61578L67.7721 2.61437L67.68 2.61349L67.5872 2.61332V2.40221L67.6814 2.40256L67.775 2.40344L67.868 2.40484L67.9605 2.40695L68.0523 2.40976L68.1433 2.4131L68.2339 2.41696L68.3239 2.4217L68.4132 2.42697L68.5018 2.43277L68.5899 2.43909L68.6774 2.44612L68.7643 2.45367L68.8504 2.46192L68.936 2.4707L69.0209 2.48019L69.1053 2.49037L69.189 2.50109L69.2721 2.5125L69.3545 2.52445L69.4364 2.53709L69.5176 2.55027L69.5983 2.56397L69.6784 2.57837L69.7578 2.59347L69.8366 2.6091L69.9148 2.62544L69.9924 2.6423L70.0694 2.65986L70.1458 2.67795L70.2215 2.69674L70.2967 2.71606H70.2962ZM72.5631 3.89457L72.4291 4.05826L72.3645 4.00662L72.2997 3.95604L72.2346 3.90651L72.1695 3.85804L72.104 3.81062L72.0381 3.76425L71.9721 3.71876L71.9059 3.67432L71.8396 3.63112L71.7728 3.58879L71.7058 3.54752L71.6385 3.5073L71.5711 3.46813L71.5033 3.43002L71.4354 3.39296L71.3671 3.35678L71.2986 3.32183L71.2299 3.28775L71.1609 3.25473L71.0917 3.22294L71.0222 3.19203L70.9524 3.16217L70.8825 3.13337L70.8123 3.10562L70.7419 3.07892L70.6711 3.05311L70.6001 3.02852L70.5288 3.00481L70.4573 2.98215L70.3857 2.96055L70.3137 2.94L70.2415 2.9205L70.2957 2.71642L70.3708 2.73679L70.4459 2.75822L70.5204 2.7807L70.5947 2.80423L70.6686 2.82882L70.7424 2.85446L70.816 2.88116L70.8892 2.90891L70.9621 2.93771L71.0349 2.96775L71.1072 2.99884L71.1794 3.0308L71.2513 3.06382L71.3228 3.09807L71.3941 3.13337L71.465 3.16973L71.5358 3.20714L71.6062 3.2456L71.6763 3.28512L71.7462 3.32569L71.8157 3.36732L71.8851 3.40999L71.9541 3.45373L72.0228 3.49851L72.0913 3.54435L72.1594 3.59125L72.2273 3.6392L72.295 3.68837L72.3622 3.73843L72.4293 3.78954L72.496 3.8417L72.5624 3.89492L72.5631 3.89457ZM74.245 6.02905L74.054 6.12073L74.0162 6.04415L73.9776 5.96846L73.9382 5.89346L73.8978 5.81917L73.8567 5.74575L73.8147 5.67321L73.772 5.60138L73.7284 5.53042L73.6839 5.46017L73.6385 5.39062L73.5925 5.32195L73.5453 5.25398L73.4975 5.18688L73.4488 5.12049L73.3994 5.05498L73.349 4.99017L73.2979 4.92624L73.2458 4.86301L73.193 4.80049L73.1394 4.73884L73.0848 4.6779L73.0294 4.61783L72.9731 4.55847L72.9161 4.4998L72.8582 4.44184L72.7994 4.38476L72.7397 4.32838L72.6794 4.27288L72.6181 4.21809L72.556 4.16399L72.493 4.11077L72.4291 4.05826L72.5631 3.89457L72.6291 3.94884L72.6942 4.00399L72.7586 4.06002L72.8222 4.11657L72.8848 4.17418L72.9466 4.23249L73.0075 4.29168L73.0675 4.35157L73.1267 4.41234L73.1849 4.47381L73.2423 4.53616L73.2987 4.59939L73.3543 4.66314L73.4092 4.72795L73.4631 4.79346L73.516 4.85985L73.5681 4.92695L73.6193 4.99492L73.6698 5.06359L73.7192 5.13314L73.7679 5.20339L73.8157 5.27452L73.8625 5.34636L73.9086 5.41907L73.9538 5.49266L73.9981 5.56696L74.0415 5.64195L74.084 5.71782L74.1257 5.7944L74.1665 5.87186L74.2063 5.95001L74.2454 6.02905H74.245ZM74.8629 8.68551H74.651L74.6503 8.60209L74.6485 8.51884L74.6455 8.43594L74.6414 8.35321L74.6361 8.27067L74.6298 8.18829L74.6222 8.1061L74.6135 8.02425L74.6037 7.94258L74.5925 7.86109L74.5804 7.77977L74.5669 7.6988L74.5523 7.61801L74.5366 7.53722L74.5196 7.45695L74.5015 7.37669L74.4822 7.29677L74.4617 7.21704L74.4402 7.13748L74.4176 7.05809L74.3938 6.97888L74.3687 6.89984L74.3426 6.82116L74.3151 6.74247L74.2865 6.66414L74.2568 6.58598L74.2259 6.508L74.1938 6.4302L74.1606 6.35257L74.1262 6.27511L74.0907 6.19801L74.054 6.12091L74.245 6.02922L74.2829 6.10879L74.3198 6.18852L74.3553 6.26861L74.3897 6.34888L74.4229 6.42932L74.4549 6.51011L74.4858 6.59108L74.5152 6.67222L74.5435 6.75354L74.5707 6.83503L74.5966 6.91688L74.6213 6.9989L74.6448 7.0811L74.6672 7.16347L74.6884 7.24619L74.7083 7.32909L74.727 7.41217L74.7445 7.49559L74.7607 7.57919L74.7759 7.66297L74.7899 7.74692L74.8026 7.83123L74.8141 7.91571L74.8243 8.00054L74.8333 8.08537L74.8412 8.17055L74.8478 8.25591L74.8532 8.34145L74.8575 8.42716L74.8605 8.51304L74.8622 8.5991L74.8629 8.68551ZM74.3227 11.2461L74.1283 11.1616L74.1605 11.0871L74.1915 11.0125L74.2215 10.9377L74.2506 10.8627L74.2787 10.7875L74.3057 10.7122L74.3317 10.6366L74.3567 10.5609L74.3807 10.4851L74.4037 10.409L74.4256 10.3328L74.4464 10.2564L74.4663 10.1796L74.4852 10.1027L74.5031 10.0256L74.5198 9.94832L74.5355 9.87087L74.5504 9.79324L74.5641 9.71543L74.5768 9.63745L74.5887 9.55929L74.5992 9.48096L74.609 9.40228L74.6176 9.32342L74.6252 9.24438L74.6319 9.16517L74.6374 9.08578L74.642 9.00622L74.6455 8.92631L74.648 8.84639L74.6496 8.7663L74.6501 8.68586H74.8621L74.8615 8.76894L74.8599 8.85184L74.8573 8.93456L74.8536 9.01711L74.8488 9.09948L74.843 9.1815L74.8361 9.26352L74.8282 9.34519L74.8192 9.42669L74.8091 9.50801L74.798 9.58915L74.7858 9.67012L74.7726 9.75073L74.7583 9.83135L74.7429 9.91161L74.7265 9.9917L74.709 10.0716L74.6907 10.1514L74.6711 10.2309L74.6506 10.3101L74.6289 10.3893L74.6061 10.4682L74.5825 10.5469L74.5576 10.6254L74.5316 10.7037L74.5048 10.7819L74.4769 10.8597L74.448 10.9373L74.418 11.0148L74.3869 11.092L74.3546 11.1692L74.3214 11.2459L74.3227 11.2461ZM72.7532 13.4057L72.6105 13.2495L72.6723 13.193L72.7332 13.1359L72.7932 13.0781L72.8524 13.02L72.9104 12.9611L72.9676 12.9018L73.0239 12.8419L73.0793 12.7815L73.1337 12.7205L73.1872 12.6589L73.2398 12.5967L73.2913 12.534L73.342 12.4708L73.3918 12.4068L73.4405 12.3426L73.4883 12.2776L73.5353 12.2121L73.5813 12.146L73.6265 12.0795L73.6706 12.0124L73.7139 11.9446L73.7563 11.8763L73.7977 11.8074L73.8381 11.738L73.8777 11.668L73.9163 11.5973L73.9541 11.5262L73.9908 11.4546L74.0267 11.3824L74.0616 11.3095L74.0957 11.2361L74.1289 11.1621L74.3232 11.2466L74.2889 11.3232L74.2536 11.3991L74.2175 11.4746L74.1804 11.5494L74.1423 11.6235L74.1033 11.6971L74.0632 11.7702L74.0222 11.8427L73.9802 11.9145L73.9373 11.9859L73.8936 12.0566L73.8487 12.1267L73.803 12.1963L73.7563 12.2653L73.7086 12.3336L73.6601 12.4014L73.6106 12.4685L73.5601 12.5352L73.5086 12.6013L73.4562 12.6668L73.4029 12.7316L73.3485 12.7959L73.2933 12.8596L73.237 12.9229L73.18 12.9854L73.1219 13.0472L73.0629 13.1085L73.0029 13.1693L72.942 13.2295L72.8802 13.2891L72.8174 13.3481L72.7537 13.4064L72.7532 13.4057ZM70.3991 14.7134L70.3417 14.5102L70.3414 14.5104L70.4208 14.4872L70.4997 14.463L70.5781 14.4377L70.6559 14.4114L70.733 14.384L70.8098 14.3555L70.8859 14.326L70.9614 14.2954L71.0365 14.2638L71.1109 14.2312L71.1849 14.1976L71.2581 14.1628L71.331 14.127L71.4032 14.0903L71.4749 14.0524L71.546 14.0135L71.6166 13.9737L71.6867 13.9328L71.7563 13.8908L71.8253 13.8477L71.8937 13.8037L71.9617 13.7585L72.029 13.7123L72.0957 13.6651L72.162 13.6168L72.2277 13.5674L72.2928 13.517L72.3576 13.4656L72.4217 13.4131L72.4852 13.3595L72.5482 13.3049L72.6107 13.2492L72.7533 13.4053L72.6886 13.4629L72.6234 13.5195L72.5576 13.575L72.4912 13.6294L72.4243 13.6828L72.3569 13.7352L72.2888 13.7863L72.2201 13.8363L72.1509 13.8853L72.081 13.9333L72.0106 13.9802L71.9396 14.026L71.8682 14.0708L71.796 14.1144L71.7232 14.1569L71.65 14.1983L71.576 14.2387L71.5015 14.2779L71.4265 14.316L71.351 14.353L71.2747 14.3891L71.1981 14.424L71.1208 14.4579L71.043 14.4906L70.9646 14.5222L70.8855 14.5527L70.8061 14.5822L70.726 14.6107L70.6453 14.6381L70.5641 14.6643L70.4824 14.6894L70.4 14.7134L70.3996 14.7136L70.3991 14.7134ZM67.671 15.0196V14.8085L67.7711 14.8083L67.8701 14.8074L67.9681 14.806L68.065 14.8039L68.1608 14.8013L68.2554 14.7981L68.3491 14.7942L68.4418 14.7898L68.5332 14.7848L68.6238 14.7793L68.7133 14.7732L68.8015 14.7665L68.8887 14.7591L68.975 14.7512L69.0599 14.7428L69.1439 14.7336L69.2269 14.7242L69.3088 14.714L69.3895 14.7031L69.4693 14.6917L69.548 14.6797L69.6255 14.6673L69.7019 14.6541L69.7773 14.6404L69.8516 14.6262L69.9248 14.6114L69.997 14.5959L70.0681 14.58L70.1382 14.5635L70.2072 14.5462L70.2752 14.5285L70.3419 14.5102L70.3993 14.7134L70.3301 14.7324L70.2598 14.7507L70.1885 14.7684L70.1161 14.7856L70.0429 14.8021L69.9686 14.8179L69.8932 14.8332L69.8168 14.8478L69.7393 14.8619L69.6608 14.8754L69.5812 14.8882L69.5007 14.9005L69.4191 14.9121L69.3365 14.9232L69.2529 14.9337L69.1681 14.9435L69.0825 14.9528L68.9957 14.9614L68.9078 14.9695L68.819 14.9769L68.7292 14.9837L68.6383 14.9901L68.5463 14.9957L68.4533 15.0008L68.3592 15.0052L68.2641 15.009L68.1679 15.0124L68.0708 15.015L67.9725 15.0171L67.8733 15.0185L67.773 15.0194L67.6717 15.0198L67.671 15.0196ZM64.2293 14.8085H67.671V15.0196H64.2293L64.1232 14.914L64.2293 14.8085ZM64.2293 15.0196H64.1232V14.914L64.2293 15.0196ZM64.3354 2.50741V14.914H64.1234V2.50741L64.2295 2.40186L64.3355 2.50741H64.3354ZM64.1234 2.50741V2.40186H64.2295L64.1234 2.50741ZM69.4057 13.5346L69.4461 13.7417L69.4467 13.7415L69.3972 13.751L69.346 13.7603L69.2935 13.7692L69.2393 13.7778L69.1835 13.7861L69.1263 13.794L69.0673 13.8017L69.007 13.8091L68.945 13.8161L68.8815 13.823L68.8164 13.8293L68.7496 13.8355L68.6813 13.8412L68.6114 13.8467L68.5399 13.8518L68.4669 13.8567L68.3922 13.8613L68.316 13.8655L68.2381 13.8695L68.1587 13.8734L68.0777 13.8767L67.9951 13.8799L67.9109 13.8829L67.8251 13.8853L67.7375 13.8876L67.6486 13.8895L67.558 13.8913L67.4657 13.8925L67.3718 13.8936L67.2763 13.8943L67.1793 13.8948L67.0806 13.895V13.6839H67.1785L67.2747 13.6834L67.3695 13.6827L67.4625 13.6816L67.5542 13.6804L67.644 13.6786L67.7322 13.6767L67.8189 13.6744L67.9038 13.6719L67.9871 13.6691L68.0688 13.666L68.149 13.6626L68.2273 13.6589L68.3041 13.6549L68.3793 13.6507L68.4527 13.6463L68.5246 13.6414L68.5948 13.6363L68.6633 13.6308L68.7304 13.625L68.7957 13.6191L68.8594 13.6127L68.9214 13.6062L68.9817 13.5994L69.0403 13.5924L69.0973 13.585L69.1528 13.5773L69.2064 13.5694L69.2585 13.5611L69.3088 13.5527L69.3575 13.5439L69.4045 13.5348L69.405 13.5346H69.4057ZM71.5203 12.5646L71.6509 12.7309L71.6521 12.73L71.5914 12.7776L71.5303 12.8242L71.4687 12.8698L71.4066 12.9144L71.3438 12.958L71.2806 13.0005L71.2168 13.0419L71.1524 13.0823L71.0875 13.1217L71.022 13.16L70.956 13.1974L70.8894 13.2336L70.8224 13.2689L70.7546 13.3031L70.6864 13.3363L70.6178 13.3684L70.5486 13.3995L70.4787 13.4296L70.4084 13.4585L70.3377 13.4865L70.2664 13.5133L70.1945 13.5392L70.1221 13.5641L70.0493 13.588L69.9756 13.6106L69.9017 13.6324L69.8272 13.6531L69.7522 13.6728L69.6766 13.6914L69.6006 13.709L69.524 13.7255L69.4468 13.741L69.4064 13.5339L69.4805 13.519L69.5542 13.5032L69.6272 13.4863L69.6998 13.4684L69.7718 13.4496L69.8433 13.4297L69.9142 13.4088L69.9847 13.3871L70.0545 13.3642L70.1239 13.3405L70.1928 13.3156L70.2611 13.2899L70.3288 13.2631L70.3961 13.2353L70.4628 13.2065L70.5292 13.1766L70.5948 13.1459L70.66 13.1141L70.7247 13.0813L70.789 13.0476L70.8527 13.0128L70.9159 12.977L70.9786 12.9402L71.0407 12.9025L71.1023 12.8637L71.1634 12.824L71.2241 12.7832L71.2841 12.7414L71.3438 12.6987L71.4027 12.655L71.4613 12.6102L71.5194 12.5646L71.5206 12.5637L71.5203 12.5646ZM73.4029 8.68569H73.6149L73.6129 8.84165L73.6071 8.99568L73.5976 9.14796L73.5842 9.2983L73.5669 9.44689L73.5459 9.59354L73.521 9.73826L73.4922 9.88123L73.4595 10.0223L73.423 10.1614L73.3828 10.2987L73.3385 10.4341L73.2904 10.5676L73.2386 10.6992L73.1828 10.8288L73.1231 10.9565L73.0596 11.0822L72.9923 11.206L72.9212 11.3279L72.8462 11.4479L72.7675 11.5657L72.6849 11.6817L72.5984 11.7956L72.5082 11.9077L72.4141 12.0176L72.3163 12.1257L72.2148 12.2316L72.1094 12.3355L72.0004 12.4376L71.8874 12.5375L71.7707 12.6357L71.6503 12.7318L71.5197 12.5654L71.636 12.4729L71.7485 12.3784L71.8572 12.2821L71.9622 12.184L72.0635 12.084L72.161 11.9823L72.2547 11.8789L72.3447 11.7735L72.431 11.6664L72.5136 11.5575L72.5925 11.4467L72.6679 11.3341L72.7394 11.2197L72.8073 11.1035L72.8714 10.9853L72.932 10.8653L72.9888 10.7434L73.0421 10.6196L73.0917 10.494L73.1376 10.3665L73.1798 10.2371L73.2183 10.1057L73.2532 9.97256L73.2845 9.8375L73.3122 9.70033L73.336 9.5614L73.3563 9.42036L73.3729 9.2774L73.3858 9.13268L73.3951 8.98585L73.4006 8.83708L73.4025 8.68639L73.4029 8.68569ZM71.5033 4.84036L71.6339 4.67403L71.6345 4.67438L71.7557 4.77239L71.8733 4.87215L71.9871 4.97366L72.0971 5.07711L72.2032 5.18214L72.3055 5.2891L72.4042 5.39782L72.499 5.50829L72.5899 5.6207L72.6769 5.73486L72.7602 5.85078L72.8396 5.96846L72.9152 6.08789L72.9869 6.20907L73.0548 6.33219L73.1187 6.45689L73.1787 6.58335L73.235 6.71156L73.2874 6.84153L73.3358 6.97326L73.3805 7.10674L73.4211 7.24198L73.4579 7.3788L73.491 7.51737L73.5199 7.6577L73.5452 7.79961L73.5665 7.94328L73.5838 8.08853L73.5974 8.23554L73.6071 8.38412L73.6129 8.53429L73.6149 8.68622H73.4029L73.4009 8.53974L73.3955 8.39501L73.3861 8.25205L73.3731 8.11084L73.3563 7.97138L73.3358 7.83369L73.3118 7.69757L73.2841 7.56321L73.2525 7.43061L73.2174 7.29976L73.1785 7.17067L73.136 7.04316L73.0898 6.91741L73.0398 6.79341L72.9861 6.67099L72.9288 6.55033L72.8677 6.43125L72.8029 6.31375L72.7345 6.19801L72.6621 6.08385L72.5862 5.97127L72.5066 5.86044L72.4231 5.7512L72.3361 5.64353L72.2452 5.53745L72.1504 5.43312L72.0519 5.33038L71.9497 5.22921L71.8436 5.12963L71.734 5.0318L71.6203 4.93538L71.503 4.84071L71.5035 4.84106L71.5033 4.84036ZM69.4219 3.9037L69.4634 3.69663H69.4632L69.5393 3.71209L69.6149 3.72859L69.6899 3.74598L69.7644 3.76425L69.8383 3.78357L69.9118 3.80394L69.9847 3.82537L70.057 3.84767L70.1289 3.87103L70.2002 3.89527L70.2709 3.92056L70.3412 3.94673L70.4109 3.97378L70.4801 4.00188L70.5488 4.03086L70.6169 4.06089L70.6843 4.09198L70.7514 4.12395L70.8179 4.15697L70.884 4.19086L70.9494 4.22581L71.0144 4.26182L71.0788 4.2987L71.1427 4.33664L71.2059 4.37545L71.2687 4.41515L71.331 4.45589L71.3926 4.4977L71.4537 4.54037L71.5144 4.58411L71.5744 4.62872L71.6339 4.67421L71.5033 4.84053L71.4463 4.7968L71.3888 4.75395L71.3307 4.71215L71.2721 4.67122L71.2131 4.63135L71.1537 4.59236L71.0935 4.55425L71.0328 4.51702L70.9717 4.48083L70.9101 4.44553L70.8479 4.41128L70.7853 4.37791L70.7221 4.34525L70.6586 4.31363L70.5943 4.28307L70.5295 4.25321L70.4644 4.22441L70.3986 4.19666L70.3322 4.16961L70.2653 4.14362L70.198 4.1185L70.1303 4.09444L70.0618 4.07108L69.9928 4.04878L69.9232 4.02735L69.8533 4.0068L69.7829 3.9873L69.7118 3.96869L69.6403 3.95095L69.5681 3.93426L69.4956 3.91846L69.4223 3.90353H69.4221L69.4219 3.9037ZM67.0808 3.7379V3.52679L67.1754 3.52697L67.2687 3.52749L67.3607 3.52837L67.4514 3.52943L67.5409 3.53083L67.629 3.53259L67.7158 3.53469L67.8013 3.53715L67.8855 3.53996L67.9684 3.54313L68.05 3.54664L68.1303 3.5505L68.2093 3.55454L68.287 3.55911L68.3634 3.56385L68.4384 3.56894L68.5122 3.57439L68.5848 3.58018L68.6559 3.58633L68.7258 3.59283L68.7943 3.59968L68.8615 3.60688L68.9276 3.61426L68.9923 3.62216L69.0559 3.63024L69.118 3.63867L69.1789 3.64745L69.2386 3.65658L69.297 3.66607L69.354 3.6759L69.4096 3.68609L69.4641 3.69663L69.4227 3.9037L69.3704 3.89351L69.3167 3.88368L69.2617 3.8742L69.2054 3.86489L69.1477 3.8561L69.0887 3.8475L69.0282 3.83924L68.9664 3.83116L68.9034 3.82361L68.8389 3.81624L68.7731 3.80939L68.7059 3.80271L68.6374 3.79639L68.5675 3.79042L68.4963 3.78462L68.4238 3.77935L68.35 3.77426L68.2748 3.76952L68.1982 3.76513L68.1204 3.76109L68.0411 3.7574L67.9605 3.75389L67.8786 3.75072L67.7954 3.74791L67.7109 3.74546L67.6251 3.74335L67.5377 3.74159L67.4491 3.74019L67.3593 3.73913L67.268 3.73825L67.1754 3.73773L67.0815 3.73755L67.0808 3.7379ZM65.4779 3.52679H67.0808V3.7379H65.4779L65.3718 3.63235L65.4779 3.52679ZM65.3718 3.63235V3.52679H65.4779L65.3718 3.63235ZM65.3718 13.7893V3.63235H65.5838V13.7893L65.4777 13.8948L65.3716 13.7893H65.3718ZM65.4779 13.8948H65.3718V13.7893L65.4779 13.8948ZM67.0808 13.8948H65.4779V13.6837H67.0808V13.8948Z" fill="black"/>
<path d="M81.0671 2.50732H82.4505L87.7989 14.9139L86.4406 14.9167L84.6466 10.7504H78.8316L77.0291 14.9111L75.685 14.9139L81.0672 2.50732H81.0671ZM84.1434 9.62559L81.759 3.92311L79.3209 9.62559H84.1434Z" fill="black"/>
<path d="M82.4506 2.6129H81.0671V2.40179H82.4506L82.548 2.46572L82.4506 2.6129ZM82.4506 2.40179H82.5205L82.548 2.46572L82.4506 2.40179ZM87.7015 14.9556L82.3532 2.54897L82.548 2.46572L87.8964 14.8723L87.7991 15.0193L87.7013 14.9554L87.7015 14.9556ZM87.8964 14.8723L87.9596 15.0192L87.7991 15.0195L87.8964 14.8725V14.8723ZM86.4404 14.8112L87.7986 14.8084L87.7991 15.0193L86.4409 15.0221L86.3431 14.9582L86.4404 14.8112ZM86.4409 15.0221L86.3708 15.0223L86.3433 14.9582L86.4411 15.0221H86.4409ZM84.7441 10.7087L86.5381 14.8751L86.3433 14.9582L84.5493 10.7918L84.6467 10.6448L84.7441 10.7087ZM84.6467 10.6448H84.7166L84.7441 10.7087L84.6467 10.6448ZM78.8317 10.6448H84.6467V10.8559H78.8317L78.7342 10.7086L78.8317 10.6448ZM78.7342 10.7086L78.762 10.6448H78.8317L78.7342 10.7086ZM76.9318 14.8693L78.7342 10.7086L78.9291 10.7922L77.1266 14.9529L77.0295 15.0167L76.9319 14.8693H76.9318ZM77.1266 14.9529L77.0991 15.0165L77.0294 15.0167L77.1265 14.9529H77.1266ZM75.6847 14.8084L77.0288 14.8056L77.0294 15.0165L75.6853 15.0193L75.5877 14.872L75.6847 14.8084ZM75.6853 15.0193L75.5236 15.0197L75.5877 14.872L75.6853 15.0193ZM81.1646 2.54914L75.7824 14.9558L75.5877 14.872L80.9699 2.46537L81.0671 2.40161L81.1644 2.54897L81.1646 2.54914ZM80.9699 2.46537L80.9976 2.40161H81.0673L80.9701 2.46537H80.9699ZM81.8568 3.88256L84.2413 9.58504L84.0455 9.66619L81.6611 3.9637L81.6614 3.88185L81.857 3.88256H81.8568ZM81.6613 3.88185L81.7599 3.65107L81.8568 3.88256L81.6613 3.88185ZM79.2232 9.58434L81.6613 3.88185L81.8565 3.9644L79.4184 9.66689L79.3208 9.73117L79.2232 9.58434ZM79.3208 9.73117H79.1605L79.2233 9.58434L79.321 9.73117H79.3208ZM84.1433 9.73117H79.3208V9.52006H84.1433L84.2413 9.58504L84.1433 9.73117ZM84.2413 9.58504L84.3023 9.73117H84.1433L84.2413 9.58504Z" fill="black"/>
<path d="M89.2669 2.50732H92.2362C93.0911 2.50732 93.7715 2.53806 94.2777 2.59971C94.7839 2.66136 95.2843 2.8319 95.7793 3.11186C96.4092 3.46997 96.89 3.94577 97.2218 4.53888C97.5537 5.132 97.7196 5.80081 97.7196 6.55059C97.7196 7.55786 97.3597 8.43093 96.6397 9.16965C95.9228 9.90837 95.0566 10.2777 94.047 10.2777L97.5563 14.9113L95.9985 14.9141L91.7637 9.28996H92.1349H92.4724C93.0685 9.28996 93.524 9.27327 93.8391 9.23955C94.154 9.20601 94.4915 9.11081 94.8514 8.95415C95.3687 8.71915 95.7681 8.38334 96.0493 7.94689C96.3305 7.51044 96.4712 7.00672 96.4712 6.43591C96.4712 5.99946 96.367 5.5825 96.1589 5.18522C95.9508 4.78793 95.6668 4.46336 95.3069 4.2115C94.947 3.95964 94.5393 3.80017 94.0837 3.73307C93.6282 3.66598 93.0967 3.63226 92.4893 3.63226H90.5153V14.9141H89.2669V2.5075V2.50732Z" fill="black"/>
<path d="M92.2362 2.61287H89.2668V2.40176H92.2362V2.61287ZM94.2906 2.49484L94.2648 2.70437L94.2175 2.69875L94.1691 2.69331L94.1199 2.68804L94.0694 2.68295L94.0179 2.67803L93.9653 2.67329L93.9118 2.66872L93.8571 2.66433L93.8015 2.66011L93.7448 2.65608L93.6871 2.65221L93.6283 2.64852L93.5686 2.64501L93.5079 2.64167L93.446 2.63851L93.3831 2.63553L93.3192 2.63272L93.2543 2.63008L93.1883 2.62762L93.1212 2.62534L93.0533 2.62323L92.9841 2.6213L92.914 2.61954L92.8428 2.61796L92.7707 2.61656L92.6974 2.61533L92.6231 2.61427L92.5479 2.6134L92.4715 2.61269L92.3942 2.61234L92.3158 2.61199H92.2364V2.40088L92.3162 2.40105L92.3951 2.40141L92.4729 2.40176L92.5499 2.40246L92.6256 2.40334L92.7004 2.40439L92.7742 2.40562L92.8469 2.40703L92.9186 2.40861L92.9894 2.41036L93.0591 2.4123L93.1279 2.4144L93.1957 2.41669L93.2624 2.41914L93.3281 2.42178L93.3928 2.42459L93.4566 2.42758L93.5192 2.43074L93.5808 2.43407L93.6415 2.43776L93.7012 2.44145L93.7598 2.44531L93.8175 2.44935L93.8742 2.45374L93.9298 2.45814L93.9845 2.46288L94.0382 2.4678L94.0908 2.47289L94.1423 2.47798L94.193 2.48343L94.2426 2.48905L94.2911 2.49484H94.2906ZM95.832 3.01999L95.7268 3.20335L95.727 3.20353L95.6816 3.17824L95.6363 3.15347L95.5907 3.12941L95.5452 3.10587L95.4996 3.08304L95.4543 3.06074L95.4087 3.03931L95.3632 3.01841L95.3177 2.99803L95.2721 2.97836L95.2266 2.95922L95.181 2.94078L95.1353 2.92304L95.0898 2.906L95.0441 2.88949L94.9984 2.87369L94.9526 2.85841L94.9069 2.84383L94.8612 2.82978L94.8155 2.81643L94.7698 2.80378L94.7241 2.79166L94.6782 2.78007L94.6325 2.76918L94.5867 2.759L94.5409 2.74934L94.495 2.74038L94.4489 2.73195L94.403 2.72422L94.3569 2.7172L94.3109 2.7107L94.2648 2.70473L94.2906 2.49519L94.3395 2.50152L94.3882 2.50854L94.4369 2.51609L94.4858 2.52435L94.5343 2.53331L94.583 2.54279L94.6316 2.55298L94.6801 2.56387L94.7287 2.57546L94.7772 2.58758L94.8256 2.6004L94.8739 2.61392L94.9223 2.62815L94.9705 2.6429L95.0188 2.65836L95.0672 2.67452L95.1152 2.6912L95.1634 2.70859L95.2114 2.72668L95.2594 2.7453L95.3074 2.76462L95.3553 2.78464L95.4031 2.80519L95.4509 2.82644L95.4988 2.84839L95.5464 2.87105L95.5941 2.89423L95.6417 2.91812L95.6894 2.94271L95.7369 2.968L95.7843 2.99382L95.8318 3.02034L95.832 3.02052V3.01999ZM97.3147 4.48724L97.1293 4.58998L97.0986 4.53624L97.067 4.4832L97.0347 4.43086L97.0015 4.37922L96.9675 4.32829L96.9327 4.27805L96.897 4.22853L96.8605 4.17952L96.8231 4.13122L96.785 4.08363L96.7458 4.03673L96.7057 3.99037L96.6649 3.94488L96.6233 3.89991L96.5809 3.85566L96.5375 3.81192L96.4934 3.76907L96.4482 3.72674L96.4023 3.68511L96.3555 3.64419L96.3079 3.60397L96.2593 3.56428L96.2099 3.52529L96.1596 3.487L96.1084 3.44924L96.0565 3.41218L96.0037 3.37582L95.9501 3.34017L95.8954 3.30504L95.8399 3.27062L95.7835 3.23672L95.7263 3.2037L95.8315 3.02034L95.8915 3.05512L95.9506 3.09059L96.0089 3.12677L96.0662 3.16366L96.1227 3.20124L96.1785 3.23953L96.2332 3.27852L96.287 3.31822L96.3402 3.35861L96.3922 3.39988L96.4436 3.44186L96.4939 3.48454L96.5435 3.52792L96.592 3.57201L96.6397 3.61679L96.6865 3.66228L96.7325 3.70847L96.7776 3.75537L96.8217 3.80296L96.8649 3.85144L96.9073 3.90044L96.9488 3.95032L96.9894 4.0009L97.0291 4.05219L97.0679 4.10418L97.1059 4.15669L97.1427 4.21008L97.1788 4.26418L97.2139 4.31898L97.2481 4.37448L97.2813 4.43068L97.3138 4.48741L97.3147 4.48724ZM97.8258 6.55041H97.6138L97.6133 6.48173L97.6119 6.41359L97.6096 6.34597L97.6063 6.27888L97.602 6.21214L97.5969 6.1461L97.5907 6.08041L97.5837 6.01507L97.5755 5.95044L97.5665 5.88616L97.5565 5.8224L97.5455 5.75918L97.5337 5.69647L97.521 5.63412L97.5072 5.5723L97.4926 5.51083L97.477 5.45006L97.4605 5.38947L97.443 5.32958L97.4245 5.27004L97.405 5.21085L97.3847 5.15219L97.3634 5.09387L97.3411 5.03609L97.3178 4.97866L97.2938 4.92175L97.2688 4.86537L97.2428 4.80935L97.216 4.75385L97.1881 4.6987L97.1593 4.6439L97.1295 4.58963L97.3148 4.48688L97.3464 4.54432L97.377 4.6021L97.4064 4.66041L97.435 4.71925L97.4626 4.77844L97.4891 4.83815L97.5146 4.89822L97.5392 4.95881L97.5627 5.01993L97.5852 5.0814L97.6068 5.1434L97.6273 5.20575L97.6467 5.26863L97.6652 5.33203L97.6827 5.39579L97.6991 5.46007L97.7146 5.52488L97.7291 5.59004L97.7425 5.65555L97.755 5.72159L97.7665 5.78816L97.7769 5.85507L97.7865 5.92252L97.7949 5.99049L97.8024 6.05863L97.8089 6.12748L97.8144 6.19686L97.8188 6.26658L97.8223 6.33666L97.8248 6.40744L97.8262 6.47857L97.8267 6.55006L97.8258 6.55041ZM96.7163 9.2427L96.5638 9.09605L96.564 9.09587L96.6289 9.0279L96.6918 8.95923L96.7525 8.88985L96.8111 8.8196L96.8676 8.74864L96.9219 8.67698L96.9744 8.60462L97.0247 8.53156L97.0729 8.45779L97.1189 8.38315L97.163 8.3078L97.205 8.23175L97.2449 8.155L97.2827 8.07754L97.3185 7.99939L97.3523 7.92035L97.384 7.84061L97.4137 7.76017L97.4414 7.67886L97.467 7.59683L97.4906 7.51394L97.5122 7.43033L97.5316 7.34603L97.5491 7.26085L97.5644 7.17479L97.5778 7.08802L97.5891 7.00038L97.5985 6.91204L97.6055 6.82282L97.6107 6.73272L97.6138 6.64191L97.6149 6.55023H97.8269L97.8258 6.64665L97.8227 6.74238L97.8174 6.83722L97.8098 6.93153L97.8001 7.02497L97.7882 7.11753L97.7741 7.20939L97.7577 7.30054L97.7393 7.39082L97.7187 7.48021L97.6959 7.56908L97.671 7.65708L97.6438 7.74419L97.6145 7.8306L97.583 7.91614L97.5492 8.00097L97.5134 8.08492L97.4753 8.168L97.435 8.25019L97.3927 8.33169L97.3482 8.4123L97.3016 8.49204L97.2529 8.5709L97.2019 8.64906L97.1487 8.72616L97.0935 8.80256L97.0361 8.87808L96.9767 8.9529L96.9151 9.02667L96.8513 9.09973L96.7855 9.17192L96.7175 9.24323L96.7177 9.24305L96.7163 9.2427ZM94.1321 10.214L93.9628 10.3409L94.0475 10.1718L94.1393 10.1708L94.2302 10.1676L94.3202 10.1623L94.4094 10.1549L94.4976 10.1455L94.585 10.1339L94.6715 10.1202L94.7571 10.1045L94.8418 10.0866L94.9256 10.0668L95.0088 10.0448L95.091 10.0206L95.1724 9.99441L95.2529 9.96614L95.3327 9.93575L95.4116 9.90326L95.4898 9.86866L95.5671 9.83195L95.6435 9.79314L95.7192 9.75221L95.7941 9.70918L95.868 9.66405L95.9413 9.6168L96.0136 9.56745L96.0853 9.51599L96.1561 9.46242L96.2261 9.40674L96.2953 9.34896L96.3636 9.28889L96.4312 9.22672L96.4981 9.16244L96.5642 9.09587L96.7167 9.24252L96.6475 9.31243L96.5772 9.38005L96.5061 9.44556L96.4339 9.50896L96.3608 9.57008L96.2869 9.62909L96.2118 9.68582L96.1359 9.74045L96.0592 9.79279L95.9813 9.84302L95.9028 9.89096L95.8232 9.93681L95.7427 9.98019L95.6613 10.0215L95.5789 10.0605L95.4958 10.0973L95.4116 10.1319L95.3267 10.1643L95.2407 10.1945L95.154 10.2224L95.0665 10.248L94.9781 10.2716L94.8887 10.2928L94.7986 10.3118L94.7077 10.3285L94.6159 10.343L94.5232 10.3552L94.4297 10.3652L94.3354 10.3729L94.2404 10.3785L94.1446 10.3819L94.0479 10.3829L94.1326 10.2138L94.1321 10.214ZM93.9628 10.3409L93.8348 10.1718H94.0475L93.9628 10.3409ZM97.4721 14.9745L93.9628 10.3409L94.1321 10.214L97.6414 14.8475L97.5568 15.0165L97.4719 14.9745H97.4721ZM97.6414 14.8475L97.7692 15.0161L97.557 15.0165L97.6416 14.8475H97.6414ZM95.9986 14.8084L97.5565 14.8056L97.5568 15.0165L95.999 15.0193L95.9139 14.9771L95.9986 14.8084ZM95.999 15.0193L95.9459 15.0195L95.9139 14.9771L95.999 15.0193ZM91.8488 9.22637L96.0835 14.8505L95.9137 14.977L91.679 9.35282L91.7639 9.18404L91.8488 9.22637ZM91.679 9.35282L91.5519 9.18404H91.7639L91.679 9.35282ZM92.1351 9.39515H91.7639V9.18404H92.1351V9.39515ZM92.4725 9.39515H92.1351V9.18404H92.4725V9.39515ZM93.8279 9.13433L93.8505 9.34422L93.8198 9.34738L93.7886 9.35036L93.7565 9.35335L93.7234 9.35616L93.6897 9.35897L93.6551 9.3616L93.6198 9.36406L93.5837 9.36652L93.5466 9.3688L93.5088 9.37109L93.4703 9.3732L93.431 9.37513L93.3907 9.37706L93.3498 9.37899L93.3078 9.38075L93.2652 9.38233L93.2218 9.38391L93.1775 9.38531L93.1323 9.38654L93.0866 9.38777L93.04 9.38883L92.9925 9.38988L92.9442 9.39076L92.8949 9.39164L92.845 9.39234L92.7943 9.39304L92.7426 9.39357L92.6904 9.39392L92.6372 9.39427L92.5832 9.39445L92.5283 9.39462L92.4727 9.3948V9.18369H92.528L92.5825 9.18351L92.6362 9.18334L92.6889 9.18298L92.741 9.18263L92.7922 9.18211L92.8425 9.1814L92.8921 9.1807L92.9408 9.17982L92.9885 9.17894L93.0354 9.17789L93.0817 9.17684L93.127 9.17561L93.1715 9.17438L93.2151 9.17297L93.258 9.17139L93.3 9.16981L93.3411 9.16806L93.3814 9.16612L93.4209 9.16419L93.4596 9.16226L93.4973 9.16015L93.5344 9.15804L93.5706 9.15576L93.6059 9.15348L93.6403 9.15102L93.6738 9.14856L93.7065 9.14593L93.7385 9.14312L93.7695 9.14031L93.7997 9.13732L93.829 9.13433H93.8279ZM94.8076 8.85789L94.8956 9.04985L94.894 9.05056L94.8596 9.06531L94.8254 9.07971L94.7911 9.09394L94.7571 9.10764L94.7232 9.12099L94.6895 9.13398L94.6558 9.14663L94.622 9.15892L94.5887 9.17087L94.5553 9.18246L94.5221 9.1937L94.4891 9.20459L94.4561 9.21513L94.4233 9.22514L94.3905 9.23497L94.3578 9.24428L94.3253 9.25324L94.2929 9.26184L94.2606 9.2701L94.2284 9.278L94.1963 9.28555L94.1642 9.29276L94.1324 9.29961L94.1008 9.3061L94.069 9.31225L94.0375 9.31805L94.0062 9.32332L93.975 9.32823L93.9437 9.3328L93.9127 9.33702L93.8818 9.34088L93.8509 9.34439L93.8283 9.13451L93.8565 9.13135L93.8851 9.12784L93.9137 9.12397L93.9425 9.11976L93.9714 9.11519L94.0006 9.11027L94.0297 9.105L94.059 9.09921L94.0886 9.09324L94.1185 9.08691L94.1483 9.08024L94.1783 9.07321L94.2085 9.06584L94.2387 9.05811L94.2692 9.05003L94.2999 9.0416L94.3306 9.03282L94.3615 9.02368L94.3926 9.0142L94.4236 9.00436L94.4551 8.99418L94.4865 8.98364L94.5181 8.97257L94.5499 8.96116L94.5818 8.94957L94.6137 8.93762L94.646 8.92515L94.6785 8.91251L94.711 8.89934L94.7437 8.88599L94.7763 8.87211L94.8093 8.85789L94.8077 8.85859L94.8076 8.85789ZM95.9603 7.88962L96.1389 8.00343L96.1112 8.04558L96.0826 8.08738L96.0533 8.12848L96.0235 8.16887L95.9928 8.20892L95.9614 8.24808L95.9293 8.28672L95.8964 8.32466L95.8627 8.36207L95.8285 8.39878L95.7935 8.43496L95.7577 8.47044L95.7213 8.50539L95.6843 8.53964L95.6463 8.57336L95.6078 8.60638L95.5685 8.63887L95.5286 8.67066L95.4878 8.70192L95.4465 8.73248L95.4045 8.76252L95.3616 8.79167L95.3182 8.8203L95.2741 8.84823L95.2292 8.87563L95.1837 8.90232L95.1374 8.92849L95.0905 8.95396L95.043 8.9789L94.9947 9.00314L94.9458 9.02685L94.8962 9.04985L94.8081 8.85789L94.8547 8.83628L94.9008 8.81415L94.9459 8.79132L94.9906 8.76796L95.0344 8.74425L95.0776 8.71984L95.12 8.6949L95.1616 8.66926L95.2028 8.64326L95.2432 8.61657L95.2829 8.58952L95.3219 8.56177L95.3602 8.53349L95.3978 8.50469L95.4347 8.47536L95.471 8.44532L95.5065 8.41476L95.5415 8.38367L95.5757 8.35206L95.6093 8.31992L95.6421 8.28725L95.6744 8.25388L95.706 8.21998L95.7369 8.18556L95.7671 8.15061L95.7967 8.11495L95.8256 8.07895L95.8539 8.04224L95.8816 8.00483L95.9086 7.96707L95.9347 7.92878L95.9603 7.88979V7.88962ZM96.3654 6.43554H96.5774L96.577 6.49052L96.5758 6.54496L96.5737 6.59923L96.5707 6.65298L96.5668 6.70637L96.562 6.75959L96.5566 6.81228L96.5502 6.86462L96.543 6.9166L96.5349 6.96806L96.5259 7.01935L96.516 7.07011L96.5054 7.12052L96.4939 7.17057L96.4816 7.2201L96.4683 7.26928L96.4542 7.31828L96.4392 7.36675L96.4233 7.41488L96.4065 7.46247L96.3891 7.50972L96.3707 7.55661L96.3513 7.60316L96.3312 7.64917L96.3102 7.69501L96.2883 7.74033L96.2655 7.78511L96.242 7.82955L96.2175 7.87363L96.1921 7.91719L96.166 7.9604L96.1389 8.00325L95.9603 7.88944L95.9852 7.8501L96.0092 7.81023L96.0325 7.77001L96.0549 7.72961L96.0766 7.68869L96.0976 7.64742L96.1178 7.60579L96.1372 7.56382L96.1557 7.52131L96.1735 7.47846L96.1905 7.43525L96.2067 7.39152L96.2221 7.34761L96.2367 7.30335L96.2505 7.25856L96.2636 7.21343L96.2757 7.16776L96.2872 7.12174L96.2978 7.07555L96.3077 7.02866L96.3169 6.98141L96.3252 6.93382L96.3328 6.88587L96.3395 6.83757L96.3455 6.78874L96.3506 6.73956L96.355 6.68986L96.3585 6.6398L96.3613 6.58922L96.3633 6.53846L96.3645 6.48718L96.3649 6.43554H96.3654ZM96.0652 5.2335L96.2532 5.13603L96.2731 5.17467L96.2923 5.21348L96.311 5.2523L96.329 5.29129L96.3463 5.33045L96.3631 5.3698L96.3794 5.40914L96.3949 5.44883L96.4097 5.48852L96.424 5.52839L96.4376 5.56844L96.4507 5.60848L96.463 5.6487L96.4747 5.68892L96.4858 5.72932L96.4962 5.76989L96.5061 5.81064L96.5153 5.85156L96.5237 5.89248L96.5317 5.93358L96.5391 5.97485L96.5456 6.01613L96.5516 6.0574L96.5569 6.09903L96.5617 6.14065L96.5657 6.18245L96.5693 6.22426L96.5721 6.26623L96.5744 6.30838L96.576 6.35054L96.5769 6.39286L96.5772 6.43537H96.3652L96.3649 6.3962L96.364 6.35703L96.3626 6.31787L96.3606 6.27905L96.358 6.24024L96.3548 6.20142L96.3511 6.16278L96.3467 6.12432L96.3418 6.08603L96.3363 6.04774L96.3301 6.00963L96.3234 5.97169L96.3162 5.93376L96.3082 5.896L96.2997 5.85841L96.2907 5.82082L96.281 5.78341L96.2708 5.746L96.2599 5.70877L96.2486 5.67171L96.2366 5.63465L96.224 5.59759L96.2108 5.56071L96.197 5.52383L96.1825 5.48729L96.1677 5.45059L96.1522 5.41423L96.1359 5.37788L96.1192 5.34152L96.1019 5.30534L96.0841 5.26933L96.0655 5.23333L96.0652 5.2335ZM95.2462 4.29737L95.3681 4.12473L95.4029 4.14949L95.4372 4.17461L95.471 4.20025L95.5044 4.22624L95.5374 4.25276L95.5699 4.27981L95.602 4.30721L95.6336 4.33514L95.6647 4.36341L95.6954 4.39222L95.7256 4.42137L95.7554 4.45105L95.7847 4.48126L95.8135 4.51182L95.8419 4.54274L95.8698 4.57417L95.8973 4.60596L95.9243 4.63828L95.9508 4.67095L95.9769 4.70414L96.0025 4.73769L96.0276 4.77176L96.0521 4.80619L96.0763 4.84096L96.1001 4.87644L96.1234 4.91209L96.1462 4.94827L96.1684 4.98498L96.1903 5.02204L96.2117 5.05963L96.2327 5.09756L96.2532 5.13585L96.0652 5.23333L96.0461 5.19767L96.0267 5.16237L96.0069 5.12742L95.9866 5.093L95.966 5.05892L95.9448 5.02538L95.9233 4.99218L95.9014 4.95951L95.879 4.9272L95.8562 4.89523L95.8329 4.86379L95.8092 4.83271L95.7852 4.80215L95.7607 4.77176L95.7358 4.7419L95.7104 4.71257L95.6846 4.68359L95.6585 4.65497L95.6318 4.62686L95.6048 4.59911L95.5773 4.57171L95.5494 4.54467L95.5212 4.51815L95.4924 4.49198L95.4633 4.46616L95.4336 4.44087L95.4036 4.41593L95.3731 4.39134L95.3422 4.3671L95.3108 4.34339L95.279 4.32003L95.2467 4.29702L95.2462 4.29737ZM94.0683 3.83704L94.0994 3.62838L94.1434 3.63523L94.1871 3.64261L94.2306 3.65051L94.2738 3.65895L94.3167 3.66808L94.3592 3.67756L94.4016 3.68775L94.4436 3.69846L94.4853 3.7097L94.5269 3.72165L94.5682 3.73412L94.6092 3.74711L94.6498 3.76064L94.6902 3.77486L94.7302 3.78944L94.7701 3.80472L94.8097 3.82053L94.8489 3.83686L94.8879 3.8539L94.9265 3.87129L94.9648 3.88938L95.003 3.90799L95.0407 3.92731L95.0783 3.94698L95.1156 3.96736L95.1524 3.98808L95.1892 4.00951L95.2255 4.03146L95.2615 4.05395L95.2974 4.07713L95.3328 4.10066L95.368 4.1249L95.246 4.29755L95.2133 4.27507L95.1805 4.25311L95.1473 4.23169L95.114 4.21096L95.0803 4.19059L95.0464 4.17074L95.0121 4.15142L94.9777 4.13263L94.9429 4.11436L94.9078 4.09662L94.8725 4.07941L94.837 4.06273L94.8012 4.04657L94.7652 4.03094L94.7288 4.01583L94.6921 4.00108L94.6552 3.98703L94.618 3.97333L94.5806 3.96033L94.5428 3.94769L94.5047 3.93557L94.4664 3.92398L94.4279 3.91291L94.3891 3.90237L94.3499 3.89236L94.3105 3.88288L94.2706 3.87392L94.2306 3.86549L94.1903 3.85759L94.1497 3.85021L94.1088 3.84336L94.0676 3.83704H94.0683ZM92.4895 3.73745V3.52634L92.5465 3.52652L92.6032 3.52669L92.6595 3.52722L92.7152 3.52792L92.7707 3.5288L92.8256 3.52985L92.8799 3.53108L92.9339 3.53249L92.9876 3.53424L93.0409 3.53618L93.0935 3.53828L93.1457 3.54057L93.1976 3.54303L93.249 3.54566L93.2998 3.54847L93.3503 3.55163L93.4004 3.55479L93.45 3.55831L93.4993 3.562L93.5482 3.56586L93.5965 3.5699L93.6444 3.57411L93.6919 3.5785L93.739 3.58325L93.7856 3.58816L93.8316 3.59326L93.8775 3.59853L93.9227 3.60415L93.9674 3.60977L94.0119 3.61556L94.056 3.62171L94.0994 3.62803L94.0683 3.83669L94.026 3.83054L93.9833 3.82457L93.9402 3.81877L93.8962 3.81333L93.8521 3.80806L93.8076 3.80296L93.7625 3.79805L93.7169 3.79331L93.671 3.78856L93.6246 3.78417L93.5777 3.77996L93.5303 3.77592L93.4827 3.77205L93.4345 3.76854L93.3858 3.7652L93.3367 3.76204L93.2871 3.75906L93.237 3.75625L93.1865 3.75361L93.1357 3.75115L93.0843 3.74887L93.0324 3.74676L92.9802 3.74501L92.9274 3.74325L92.8743 3.74184L92.8206 3.74061L92.7666 3.73956L92.7121 3.73868L92.6572 3.73798L92.6017 3.73745L92.5458 3.73728H92.4895V3.73745ZM90.5154 3.52634H92.4895V3.73745H90.5154L90.4094 3.6319L90.5154 3.52634ZM90.4094 3.6319V3.52634H90.5154L90.4094 3.6319ZM90.4094 14.9137V3.6319H90.6213V14.9137L90.5153 15.0193L90.4092 14.9137H90.4094ZM90.6213 14.9137V15.0193H90.5153L90.6213 14.9137ZM89.2668 14.8082H90.5153V15.0193H89.2668L89.1607 14.9137L89.2668 14.8082ZM89.2668 15.0193H89.1607V14.9137L89.2668 15.0193ZM89.3729 2.50714V14.9137H89.1609V2.50714L89.267 2.40158L89.3731 2.50714H89.3729ZM89.1609 2.50714V2.40158H89.267L89.1609 2.50714Z" fill="black"/>
<path d="M101.112 3.6325H98.2435V2.50757H105.195V3.6325H102.36V14.9144H101.112V3.6325Z" fill="black"/>
<path d="M98.2427 3.52686H101.111V3.73797H98.2427L98.1366 3.63242L98.2427 3.52686ZM98.2427 3.73797H98.1366V3.63242L98.2427 3.73797ZM98.3488 2.50766V3.63242H98.1368V2.50766L98.2429 2.4021L98.349 2.50766H98.3488ZM98.1368 2.50766V2.4021H98.2429L98.1368 2.50766ZM105.194 2.61321H98.2429V2.4021H105.194L105.3 2.50766L105.194 2.61321ZM105.194 2.4021H105.3V2.50766L105.194 2.4021ZM105.088 3.63242V2.50766H105.3V3.63242L105.194 3.73797L105.088 3.63242H105.088ZM105.3 3.63242V3.73797H105.194L105.3 3.63242ZM102.36 3.52686H105.194V3.73797H102.36L102.253 3.63242L102.36 3.52686ZM102.253 3.63242V3.52686H102.36L102.253 3.63242ZM102.253 14.9143V3.63242H102.465V14.9143L102.359 15.0198L102.253 14.9143H102.253ZM102.465 14.9143V15.0198H102.359L102.465 14.9143ZM101.111 14.8087H102.36V15.0198H101.111L101.005 14.9143L101.111 14.8087ZM101.111 15.0198H101.005V14.9143L101.111 15.0198ZM101.217 3.63242V14.9143H101.005V3.63242L101.111 3.52686L101.217 3.63242H101.217ZM101.111 3.52686H101.217V3.63242L101.111 3.52686Z" fill="black"/>
<path d="M30.0979 18.2213C30.4371 18.2213 30.7386 18.3076 31.0021 18.4818C31.2674 18.6543 31.4715 18.8984 31.6176 19.2093C31.7657 19.5217 31.8379 19.8774 31.8379 20.2778V23.4983C31.8379 23.5234 31.8289 23.545 31.8109 23.5611C31.7946 23.5791 31.7729 23.588 31.7477 23.588H31.6321C31.6068 23.588 31.5851 23.5791 31.5654 23.5611C31.5456 23.545 31.5364 23.5234 31.5364 23.4983V20.2833C31.5364 19.9403 31.4732 19.6331 31.3486 19.3654C31.224 19.096 31.0471 18.8877 30.8198 18.7368C30.5923 18.586 30.3342 18.5104 30.0455 18.5104C29.706 18.5104 29.41 18.586 29.1538 18.7368C28.8992 18.8877 28.7024 19.1014 28.5653 19.3781C28.4264 19.6547 28.3577 19.978 28.3577 20.3462L28.3522 20.3407V23.4983C28.3522 23.5234 28.3432 23.545 28.327 23.5611C28.309 23.5791 28.2873 23.588 28.2638 23.588H28.1464C28.1175 23.588 28.094 23.5791 28.076 23.5611C28.0562 23.545 28.0453 23.5234 28.0453 23.4983V20.2833C28.0453 19.9403 27.9839 19.6331 27.8575 19.3654C27.7329 19.096 27.5578 18.8877 27.3322 18.7368C27.1066 18.586 26.8484 18.5104 26.5596 18.5104C26.2221 18.5104 25.9242 18.586 25.6697 18.7368C25.4134 18.8877 25.2166 19.1014 25.0757 19.3781C24.9368 19.6547 24.8682 19.978 24.8682 20.3462V23.509C24.8682 23.5683 24.8357 23.5987 24.7725 23.5987H24.6571C24.5956 23.5987 24.5667 23.5682 24.5667 23.509V18.3884C24.5667 18.3255 24.5956 18.2949 24.6571 18.2949H24.7255C24.7526 18.2949 24.776 18.3021 24.794 18.3183C24.8103 18.3345 24.8193 18.3543 24.8193 18.3794L24.8517 19.3421C24.9961 18.9866 25.2219 18.7117 25.5251 18.5159C25.8301 18.3183 26.193 18.2213 26.6135 18.2213C27.0106 18.2213 27.3571 18.3417 27.6496 18.5842C27.9419 18.8266 28.1459 19.1536 28.2633 19.5685C28.3789 19.1464 28.599 18.8176 28.9202 18.5789C29.2434 18.3401 29.6351 18.2215 30.0972 18.2215L30.0979 18.2213ZM38.6158 18.2949C38.6807 18.2949 38.7114 18.3255 38.7114 18.3884V23.5035C38.7114 23.5323 38.7024 23.5538 38.6862 23.5717C38.6682 23.5898 38.6447 23.5986 38.6158 23.5986H38.5471C38.5236 23.5986 38.5019 23.5896 38.4839 23.5752C38.4659 23.559 38.4569 23.5374 38.4532 23.5088L38.41 22.0665C38.2728 22.3863 38.0797 22.6665 37.8305 22.9088C37.5832 23.1512 37.2944 23.3381 36.966 23.471C36.6392 23.6058 36.289 23.6721 35.9191 23.6721C35.4227 23.6721 34.9679 23.5501 34.5545 23.3095C34.1429 23.0669 33.8181 22.7365 33.5798 22.3198C33.3416 21.9012 33.2224 21.4434 33.2224 20.9403C33.2224 20.4284 33.3416 19.9633 33.5798 19.543C33.8181 19.1245 34.1411 18.7941 34.5527 18.5552C34.9644 18.3144 35.4173 18.1941 35.9138 18.1941C36.2857 18.1941 36.6339 18.2605 36.9644 18.3935C37.2946 18.5282 37.5834 18.7149 37.8308 18.9574C38.0799 19.1998 38.273 19.4801 38.4103 19.7998L38.4536 18.3791C38.4573 18.3539 38.4663 18.3341 38.4825 18.3179C38.4987 18.3018 38.5204 18.2946 38.5474 18.2946H38.6161L38.6158 18.2949ZM35.9516 23.3778C36.4064 23.3778 36.8216 23.2682 37.1988 23.0509C37.576 22.8337 37.8739 22.5372 38.0922 22.1636C38.3125 21.7901 38.4207 21.3805 38.4207 20.9351C38.4207 20.4825 38.3106 20.0694 38.0905 19.6958C37.8702 19.3222 37.5707 19.0277 37.1915 18.8104C36.8124 18.593 36.3955 18.4836 35.9406 18.4836C35.4965 18.4836 35.0906 18.5932 34.7222 18.8104C34.354 19.0277 34.0615 19.3242 33.8467 19.6995C33.6319 20.0748 33.5237 20.4861 33.5237 20.9352C33.5237 21.3807 33.6321 21.7902 33.8487 22.1638C34.0652 22.5374 34.3612 22.8338 34.7331 23.0511C35.105 23.2684 35.511 23.378 35.9516 23.378V23.3778ZM42.9261 18.1943C43.325 18.1943 43.6806 18.2805 43.9946 18.4548C44.3088 18.629 44.5524 18.8714 44.7275 19.184C44.9026 19.4964 44.9893 19.8521 44.9893 20.2526V23.4981C44.9893 23.5232 44.9802 23.5448 44.9622 23.561C44.9441 23.5789 44.9243 23.5878 44.8991 23.5878H44.7836C44.7547 23.5878 44.7312 23.5789 44.7114 23.561C44.6915 23.5448 44.6825 23.5232 44.6825 23.4981V20.2615C44.6825 19.9185 44.6066 19.6113 44.4532 19.3419C44.2998 19.0707 44.085 18.8607 43.8125 18.7098C43.5399 18.5589 43.2277 18.4834 42.8793 18.4834C42.5164 18.4834 42.1808 18.5677 41.8739 18.733C41.567 18.9 41.3234 19.1245 41.1428 19.4065C40.9605 19.6903 40.8703 19.9956 40.8703 20.3242V23.5086C40.8703 23.568 40.8378 23.5984 40.7746 23.5984H40.6592C40.5978 23.5984 40.5688 23.5678 40.5688 23.5086V18.388C40.5688 18.3251 40.5978 18.2946 40.6592 18.2946H40.7277C40.7547 18.2946 40.7781 18.3018 40.7962 18.3179C40.8124 18.3341 40.8214 18.3539 40.8214 18.3791L40.8593 19.4513C40.9712 19.2052 41.1319 18.9878 41.3394 18.7994C41.5488 18.609 41.7888 18.4616 42.0613 18.354C42.3358 18.248 42.6226 18.1941 42.9259 18.1941L42.9261 18.1943ZM51.0595 18.2949C51.1227 18.2949 51.1552 18.3237 51.1552 18.3829V23.5035C51.1552 23.5323 51.1462 23.5538 51.1282 23.5717C51.1102 23.5898 51.0884 23.5986 51.0597 23.5986H50.991C50.9658 23.5986 50.9441 23.5896 50.9278 23.5752C50.9096 23.559 50.8989 23.5374 50.8953 23.5088L50.8646 22.4348C50.751 22.6809 50.5903 22.8981 50.3828 23.0885C50.1752 23.2771 49.9334 23.4261 49.6589 23.5322C49.3827 23.64 49.0939 23.692 48.7907 23.6939C48.3918 23.6922 48.038 23.6059 47.7256 23.4317C47.4134 23.2592 47.1696 23.0169 46.9945 22.7062C46.8212 22.3955 46.7328 22.0416 46.7328 21.6411V18.3884C46.7328 18.365 46.7418 18.3434 46.758 18.3292C46.7725 18.313 46.794 18.3041 46.8175 18.3041H46.9349C46.9619 18.3041 46.9871 18.313 47.0053 18.3292C47.0251 18.3436 47.0343 18.365 47.0343 18.3884V21.6304C47.0343 21.9734 47.1119 22.2806 47.2653 22.5518C47.4187 22.8212 47.6317 23.0313 47.9078 23.1821C48.1821 23.333 48.4945 23.4085 48.8427 23.4085C49.2037 23.4085 49.5359 23.3258 49.8428 23.1589C50.1498 22.9919 50.3934 22.7673 50.5757 22.4854C50.7563 22.2033 50.8482 21.8981 50.8482 21.5675V18.3831C50.8482 18.3237 50.8789 18.2951 50.9421 18.2951H51.0595V18.2949ZM55.1839 15.4948C55.2146 15.4948 55.2417 15.5038 55.2651 15.5217C55.2886 15.5378 55.2994 15.5594 55.2994 15.5846V15.6994C55.2994 15.7245 55.2884 15.7444 55.2687 15.7605C55.2469 15.7767 55.2199 15.7839 55.1892 15.7839C54.9312 15.7839 54.6964 15.8448 54.4853 15.9688C54.274 16.0911 54.1062 16.2634 53.9835 16.4861C53.8589 16.7088 53.7976 16.9656 53.7976 17.2566V18.3037H55.072C55.101 18.3037 55.1245 18.3109 55.1405 18.3253C55.1585 18.3397 55.1675 18.3594 55.1675 18.3828V18.4887C55.1675 18.5175 55.1585 18.5389 55.1405 18.557C55.1243 18.5749 55.1008 18.5839 55.072 18.5839H53.7976V23.5086C53.7976 23.568 53.7669 23.5984 53.702 23.5984H53.5701C53.5467 23.5984 53.5269 23.5894 53.5142 23.575C53.5034 23.5589 53.4962 23.5373 53.4962 23.5086V18.5839H52.6297C52.6008 18.5839 52.5792 18.5749 52.563 18.557C52.5467 18.5389 52.5395 18.5175 52.5395 18.4887V18.388C52.5395 18.3647 52.5467 18.3431 52.563 18.3288C52.5792 18.3127 52.6009 18.3037 52.6297 18.3037H53.4962V17.262C53.4962 16.9153 53.5701 16.6083 53.7182 16.3389C53.8663 16.0712 54.0702 15.8629 54.3265 15.7156C54.5845 15.5682 54.8698 15.4946 55.1838 15.4946L55.1839 15.4948ZM61.2 18.2949C61.2649 18.2949 61.2957 18.3255 61.2957 18.3884V23.5035C61.2957 23.5323 61.2867 23.5538 61.2704 23.5717C61.2524 23.5898 61.2289 23.5986 61.2 23.5986H61.1313C61.1079 23.5986 61.0862 23.5896 61.0681 23.5752C61.0501 23.559 61.0411 23.5374 61.0374 23.5088L60.9942 22.0665C60.857 22.3863 60.6639 22.6665 60.4147 22.9088C60.1674 23.1512 59.8787 23.3381 59.5502 23.471C59.2235 23.6058 58.8733 23.6721 58.5033 23.6721C58.007 23.6721 57.5521 23.5501 57.1387 23.3095C56.7271 23.0669 56.4024 22.7365 56.1641 22.3198C55.9258 21.9012 55.8067 21.4434 55.8067 20.9403C55.8067 20.4284 55.9258 19.9633 56.1641 19.543C56.4024 19.1245 56.7254 18.7941 57.137 18.5552C57.5486 18.3144 58.0015 18.1941 58.498 18.1941C58.8699 18.1941 59.2182 18.2605 59.5486 18.3935C59.8788 18.5282 60.1676 18.7149 60.4151 18.9574C60.6641 19.1998 60.8572 19.4801 60.9945 19.7998L61.0378 18.3791C61.0415 18.3539 61.0505 18.3341 61.0667 18.3179C61.083 18.3018 61.1047 18.2946 61.1317 18.2946H61.2004L61.2 18.2949ZM58.5358 23.3778C58.9907 23.3778 59.4058 23.2682 59.783 23.0509C60.1602 22.8337 60.4581 22.5372 60.6765 22.1636C60.8968 21.7901 61.005 21.3805 61.005 20.9351C61.005 20.4825 60.8948 20.0694 60.6747 19.6958C60.4544 19.3222 60.1549 19.0277 59.7758 18.8104C59.3966 18.593 58.9797 18.4836 58.5249 18.4836C58.0808 18.4836 57.6748 18.5932 57.3064 18.8104C56.9382 19.0277 56.6458 19.3242 56.431 19.6995C56.2162 20.0748 56.108 20.4861 56.108 20.9352C56.108 21.3807 56.2163 21.7902 56.4329 22.1638C56.6495 22.5374 56.9455 22.8338 57.3174 23.0511C57.6893 23.2684 58.0952 23.378 58.5358 23.378V23.3778ZM65.4633 23.6832C64.9633 23.6832 64.5049 23.5575 64.0878 23.3096C63.6727 23.0601 63.3442 22.7241 63.1022 22.3038C62.8604 21.8835 62.7395 21.4274 62.7395 20.9351C62.7395 20.4375 62.8604 19.9814 63.1022 19.5683C63.3442 19.1534 63.6727 18.8266 64.0878 18.584C64.5047 18.3415 64.9596 18.2212 65.4524 18.2212C65.8044 18.2212 66.1491 18.2876 66.483 18.4223C66.8187 18.5587 67.1147 18.7402 67.373 18.9683C67.3965 18.988 67.409 19.0115 67.409 19.0366C67.409 19.0528 67.4017 19.0725 67.3873 19.0941L67.3241 19.1893C67.3096 19.2091 67.2879 19.2198 67.2554 19.2198C67.2302 19.2198 67.2067 19.2091 67.1815 19.1893C66.9379 18.9755 66.6707 18.8104 66.3801 18.6936C66.0894 18.5788 65.7809 18.5212 65.4524 18.5212C65.012 18.5212 64.6076 18.6271 64.2394 18.8408C63.8713 19.0546 63.5805 19.3473 63.3659 19.7174C63.1529 20.0875 63.0464 20.4933 63.0464 20.9351C63.0464 21.3733 63.1546 21.7811 63.3694 22.1564C63.5843 22.5318 63.8767 22.83 64.2467 23.0509C64.6168 23.2719 65.0246 23.3832 65.4686 23.3832C65.7971 23.3832 66.1076 23.3221 66.4054 23.2018C66.7014 23.0797 66.9594 22.9162 67.1815 22.7097C67.2104 22.6881 67.2356 22.6774 67.2609 22.6774C67.2789 22.6774 67.2971 22.6863 67.3133 22.7042L67.3818 22.7922C67.3963 22.8138 67.4035 22.8335 67.4035 22.8516C67.4035 22.8893 67.389 22.918 67.362 22.9361C67.104 23.1732 66.8115 23.3581 66.4813 23.4874C66.151 23.6186 65.8116 23.6832 65.4632 23.6832H65.4633ZM70.8314 23.3939C70.8622 23.3939 70.8892 23.4011 70.9109 23.4173C70.9306 23.4317 70.9416 23.4531 70.9416 23.4765V23.5933C70.9416 23.6166 70.9307 23.6383 70.9074 23.6562C70.8856 23.6741 70.8549 23.683 70.8207 23.683C70.5102 23.683 70.2267 23.6112 69.9687 23.4693C69.7124 23.3274 69.5085 23.1317 69.3587 22.8857C69.2088 22.6378 69.1329 22.363 69.1329 22.0612V18.5679H68.2972C68.234 18.5679 68.2033 18.541 68.2033 18.4888V18.3882C68.2033 18.329 68.234 18.3002 68.2972 18.3002H69.1329V16.5994C69.1329 16.5509 69.1582 16.5168 69.2069 16.5007L69.3405 16.4738C69.3477 16.4701 69.3567 16.4685 69.3712 16.4685C69.3929 16.4685 69.4092 16.4757 69.4217 16.4919C69.4344 16.508 69.4397 16.5277 69.4397 16.5528V18.3004H70.7195C70.779 18.3004 70.8097 18.3255 70.8097 18.3794V18.489C70.8097 18.5412 70.779 18.568 70.7195 18.568H69.4397V22.0669C69.4397 22.3094 69.5011 22.5321 69.6256 22.735C69.7482 22.9398 69.9161 23.0996 70.1309 23.2164C70.3439 23.3349 70.5768 23.3941 70.8313 23.3941L70.8314 23.3939ZM76.7231 18.2949C76.7863 18.2949 76.8187 18.3237 76.8187 18.3829V23.5035C76.8187 23.5323 76.8097 23.5538 76.7917 23.5717C76.7737 23.5898 76.752 23.5986 76.7233 23.5986H76.6546C76.6294 23.5986 76.6076 23.5896 76.5914 23.5752C76.5732 23.559 76.5625 23.5374 76.5589 23.5088L76.5282 22.4348C76.4145 22.6809 76.2539 22.8981 76.0463 23.0885C75.8388 23.2771 75.597 23.4261 75.3225 23.5322C75.0463 23.64 74.7575 23.692 74.4543 23.6939C74.0554 23.6922 73.7016 23.6059 73.3892 23.4317C73.077 23.2592 72.8332 23.0169 72.6581 22.7062C72.4848 22.3955 72.3964 22.0416 72.3964 21.6411V18.3884C72.3964 18.365 72.4054 18.3434 72.4216 18.3292C72.4361 18.313 72.4576 18.3041 72.4811 18.3041H72.5985C72.6255 18.3041 72.6507 18.313 72.6689 18.3292C72.6887 18.3436 72.6978 18.365 72.6978 18.3884V21.6304C72.6978 21.9734 72.7755 22.2806 72.9289 22.5518C73.0823 22.8212 73.2953 23.0313 73.5714 23.1821C73.8457 23.333 74.1581 23.4085 74.5063 23.4085C74.8673 23.4085 75.1995 23.3258 75.5064 23.1589C75.8134 22.9919 76.0569 22.7673 76.2393 22.4854C76.4198 22.2033 76.5118 21.8981 76.5118 21.5675V18.3831C76.5118 18.3237 76.5425 18.2951 76.6057 18.2951H76.7231V18.2949ZM81.8204 18.5733C81.8474 18.5912 81.8674 18.6111 81.8781 18.6362C81.8889 18.6613 81.8871 18.6829 81.8727 18.7045L81.8095 18.7997C81.7878 18.8285 81.7662 18.841 81.741 18.841C81.7193 18.841 81.6886 18.8303 81.6453 18.8052C81.4972 18.7064 81.3403 18.6292 81.1723 18.5735C81.0044 18.5178 80.8438 18.489 80.6887 18.489C80.371 18.489 80.0804 18.568 79.8187 18.7226C79.5551 18.8789 79.3493 19.0907 79.1977 19.3549C79.0461 19.6189 78.9702 19.9081 78.9702 20.2206V23.5092C78.9702 23.5685 78.9377 23.5989 78.8745 23.5989H78.7591C78.6977 23.5989 78.6687 23.5683 78.6687 23.5092V18.3885C78.6687 18.3257 78.6977 18.2951 78.7591 18.2951H78.8276C78.8546 18.2951 78.8781 18.3023 78.8961 18.3185C78.9123 18.3346 78.9213 18.3545 78.9213 18.3796L78.9538 19.3477C79.1054 19.0064 79.3382 18.7317 79.6542 18.5215C79.9701 18.3095 80.3238 18.2054 80.7155 18.2054C80.8906 18.2054 81.0764 18.2377 81.2732 18.3023C81.4683 18.3669 81.6506 18.4569 81.8202 18.5735L81.8204 18.5733ZM85.0461 18.2105C85.5479 18.2105 85.9918 18.3218 86.3817 18.5445C86.7716 18.7672 87.0749 19.0779 87.2932 19.4748C87.5115 19.8735 87.6217 20.3279 87.6217 20.8416C87.6217 20.8829 87.6091 20.9224 87.582 20.9565C87.555 20.9925 87.517 21.0087 87.4683 21.0087H82.7248C82.7321 21.4379 82.844 21.8331 83.0606 22.1977C83.2771 22.5641 83.5714 22.8533 83.9433 23.0669C84.3152 23.2807 84.7284 23.3885 85.1797 23.3885C85.5137 23.3885 85.8314 23.3328 86.1309 23.225C86.4306 23.1154 86.6904 22.952 86.9125 22.7346C86.9342 22.7148 86.9577 22.7041 86.9829 22.7041C87.0064 22.7041 87.0281 22.713 87.0461 22.7292L87.1146 22.8136C87.1326 22.8316 87.1398 22.8514 87.1398 22.8711C87.1398 22.8999 87.1273 22.9285 87.0983 22.9556C86.851 23.1944 86.5586 23.3759 86.2176 23.4979C85.8781 23.6202 85.5244 23.6829 85.158 23.6829C84.6509 23.6829 84.1869 23.5589 83.7699 23.3147C83.3513 23.0687 83.0226 22.7364 82.7808 22.3196C82.539 21.9011 82.4181 21.4467 82.4181 20.951C82.4181 20.4463 82.5355 19.9847 82.7683 19.5644C82.9993 19.1459 83.317 18.8153 83.7195 18.573C84.1219 18.3306 84.5642 18.2101 85.0461 18.2101V18.2105ZM85.0406 18.505C84.6399 18.505 84.268 18.6019 83.9288 18.7958C83.5876 18.9917 83.3114 19.2574 83.0985 19.5932C82.8837 19.931 82.7628 20.3063 82.7303 20.7194H87.3151C87.2971 20.2847 87.1905 19.9004 86.9956 19.5646C86.7988 19.2305 86.5335 18.9701 86.196 18.7834C85.8603 18.5984 85.4759 18.505 85.0408 18.505H85.0406Z" fill="black"/>
</svg>
