<svg width="15" height="14" viewBox="0 0 15 14" fill="none" xmlns="http://www.w3.org/2000/svg">
<path d="M9.83879 11.3095C6.25822 11.3095 3.34517 8.39641 3.34517 4.81584C3.34586 4.17542 3.57967 3.55716 4.00292 3.07654C4.42616 2.59592 5.00991 2.28582 5.6451 2.20417C5.83373 2.18138 6.02468 2.22024 6.18941 2.31494C6.35414 2.40964 6.4838 2.5551 6.55903 2.72958L7.4405 4.7864C7.49767 4.91938 7.52099 5.06446 7.50836 5.20866C7.49574 5.35286 7.44756 5.49169 7.36814 5.61271L6.69395 6.64291C6.99419 7.20792 7.45768 7.66937 8.024 7.96713L9.03744 7.29136C9.15879 7.21013 9.29853 7.16058 9.44394 7.14721C9.58935 7.13385 9.73578 7.15709 9.8699 7.21484L11.925 8.0956C12.0995 8.17075 12.2451 8.3004 12.3398 8.46515C12.4345 8.62989 12.4733 8.82088 12.4505 9.00953C12.3688 9.64472 12.0587 10.2285 11.5781 10.6517C11.0975 11.075 10.4792 11.3088 9.83879 11.3095ZM5.64549 3.27119C5.29248 3.34757 4.97624 3.54245 4.74933 3.82346C4.52242 4.10446 4.39851 4.45466 4.39819 4.81584C4.39981 6.25828 4.97354 7.64117 5.9935 8.66113C7.01346 9.68109 8.39635 10.2548 9.83879 10.2564C10.2 10.2561 10.5502 10.1322 10.8312 9.90528C11.1122 9.67837 11.307 9.36214 11.3834 9.00914L9.54254 8.22021L8.52322 8.89989C8.39685 8.98424 8.25073 9.03432 8.09919 9.04521C7.94764 9.0561 7.79587 9.02743 7.65873 8.96201C6.80687 8.54921 6.11768 7.86316 5.70099 7.01318C5.63528 6.87687 5.60591 6.72588 5.61575 6.57487C5.62559 6.42386 5.6743 6.27796 5.75716 6.15133L6.43561 5.11472L5.64549 3.27119Z" fill="#939393"/>
</svg>
